<mxfile host="app.diagrams.net" modified="2023-11-15T01:02:53.986Z" agent="Mozilla/5.0 (Windows NT 10.0; Win64; x64) AppleWebKit/537.36 (KHTML, like Gecko) Chrome/119.0.0.0 Safari/537.36" etag="_3tqgjvg4mB-ol_B_VRA" version="22.1.1" type="github">
  <diagram name="PÃ¡gina-1" id="lRrv80_V2zP-I7fB7Nj7">
    <mxGraphModel dx="1728" dy="1821" grid="1" gridSize="10" guides="1" tooltips="1" connect="1" arrows="1" fold="1" page="1" pageScale="1" pageWidth="827" pageHeight="1169" math="0" shadow="0">
      <root>
        <mxCell id="0" />
        <mxCell id="1" parent="0" />
        <mxCell id="ZoLgGPwyBZnqr0tmu89g-274" value="" style="rounded=1;whiteSpace=wrap;html=1;fillColor=#fff2cc;strokeColor=#d6b656;" vertex="1" parent="1">
          <mxGeometry x="10" y="1180" width="800" height="920" as="geometry" />
        </mxCell>
        <mxCell id="ZoLgGPwyBZnqr0tmu89g-132" value="" style="rounded=1;whiteSpace=wrap;html=1;fillColor=#d5e8d4;strokeColor=#82b366;" vertex="1" parent="1">
          <mxGeometry x="10" y="120" width="810" height="770" as="geometry" />
        </mxCell>
        <mxCell id="ZoLgGPwyBZnqr0tmu89g-1" value="Cliente" style="rounded=1;arcSize=10;whiteSpace=wrap;html=1;align=center;" vertex="1" parent="1">
          <mxGeometry x="160" y="260" width="100" height="40" as="geometry" />
        </mxCell>
        <mxCell id="ZoLgGPwyBZnqr0tmu89g-2" value="tipoDocumento" style="ellipse;whiteSpace=wrap;html=1;" vertex="1" parent="1">
          <mxGeometry x="20" y="240" width="90" height="30" as="geometry" />
        </mxCell>
        <mxCell id="ZoLgGPwyBZnqr0tmu89g-3" value="documento" style="ellipse;whiteSpace=wrap;html=1;" vertex="1" parent="1">
          <mxGeometry x="170" y="200" width="90" height="30" as="geometry" />
        </mxCell>
        <mxCell id="ZoLgGPwyBZnqr0tmu89g-4" value="nombre" style="ellipse;whiteSpace=wrap;html=1;" vertex="1" parent="1">
          <mxGeometry x="300" y="190" width="90" height="30" as="geometry" />
        </mxCell>
        <mxCell id="ZoLgGPwyBZnqr0tmu89g-5" value="correo" style="ellipse;whiteSpace=wrap;html=1;" vertex="1" parent="1">
          <mxGeometry x="70" y="190" width="90" height="30" as="geometry" />
        </mxCell>
        <mxCell id="ZoLgGPwyBZnqr0tmu89g-6" value="" style="endArrow=none;html=1;rounded=0;entryX=0.816;entryY=0.999;entryDx=0;entryDy=0;entryPerimeter=0;exitX=0.25;exitY=0;exitDx=0;exitDy=0;" edge="1" parent="1" source="ZoLgGPwyBZnqr0tmu89g-1" target="ZoLgGPwyBZnqr0tmu89g-5">
          <mxGeometry relative="1" as="geometry">
            <mxPoint x="190" y="280" as="sourcePoint" />
            <mxPoint x="740" y="450" as="targetPoint" />
          </mxGeometry>
        </mxCell>
        <mxCell id="ZoLgGPwyBZnqr0tmu89g-7" value="" style="resizable=0;html=1;whiteSpace=wrap;align=right;verticalAlign=bottom;" connectable="0" vertex="1" parent="ZoLgGPwyBZnqr0tmu89g-6">
          <mxGeometry x="1" relative="1" as="geometry" />
        </mxCell>
        <mxCell id="ZoLgGPwyBZnqr0tmu89g-8" value="" style="endArrow=none;html=1;rounded=0;entryX=1;entryY=1;entryDx=0;entryDy=0;exitX=0;exitY=0.25;exitDx=0;exitDy=0;exitPerimeter=0;" edge="1" parent="1" source="ZoLgGPwyBZnqr0tmu89g-1" target="ZoLgGPwyBZnqr0tmu89g-2">
          <mxGeometry relative="1" as="geometry">
            <mxPoint x="200" y="286" as="sourcePoint" />
            <mxPoint x="153" y="230" as="targetPoint" />
          </mxGeometry>
        </mxCell>
        <mxCell id="ZoLgGPwyBZnqr0tmu89g-9" value="" style="resizable=0;html=1;whiteSpace=wrap;align=right;verticalAlign=bottom;" connectable="0" vertex="1" parent="ZoLgGPwyBZnqr0tmu89g-8">
          <mxGeometry x="1" relative="1" as="geometry" />
        </mxCell>
        <mxCell id="ZoLgGPwyBZnqr0tmu89g-10" value="" style="endArrow=none;html=1;rounded=0;exitX=0.25;exitY=0;exitDx=0;exitDy=0;" edge="1" parent="1" source="ZoLgGPwyBZnqr0tmu89g-1" target="ZoLgGPwyBZnqr0tmu89g-3">
          <mxGeometry relative="1" as="geometry">
            <mxPoint x="200" y="286" as="sourcePoint" />
            <mxPoint x="153" y="230" as="targetPoint" />
          </mxGeometry>
        </mxCell>
        <mxCell id="ZoLgGPwyBZnqr0tmu89g-11" value="" style="resizable=0;html=1;whiteSpace=wrap;align=right;verticalAlign=bottom;" connectable="0" vertex="1" parent="ZoLgGPwyBZnqr0tmu89g-10">
          <mxGeometry x="1" relative="1" as="geometry" />
        </mxCell>
        <mxCell id="ZoLgGPwyBZnqr0tmu89g-12" value="" style="endArrow=none;html=1;rounded=0;entryX=0.284;entryY=0.976;entryDx=0;entryDy=0;entryPerimeter=0;" edge="1" parent="1" source="ZoLgGPwyBZnqr0tmu89g-1" target="ZoLgGPwyBZnqr0tmu89g-4">
          <mxGeometry relative="1" as="geometry">
            <mxPoint x="225" y="280" as="sourcePoint" />
            <mxPoint x="248" y="230" as="targetPoint" />
          </mxGeometry>
        </mxCell>
        <mxCell id="ZoLgGPwyBZnqr0tmu89g-13" value="" style="resizable=0;html=1;whiteSpace=wrap;align=right;verticalAlign=bottom;" connectable="0" vertex="1" parent="ZoLgGPwyBZnqr0tmu89g-12">
          <mxGeometry x="1" relative="1" as="geometry" />
        </mxCell>
        <mxCell id="ZoLgGPwyBZnqr0tmu89g-14" value="Producto" style="rounded=1;arcSize=10;whiteSpace=wrap;html=1;align=center;" vertex="1" parent="1">
          <mxGeometry x="720" y="490" width="100" height="40" as="geometry" />
        </mxCell>
        <mxCell id="ZoLgGPwyBZnqr0tmu89g-15" value="codigo" style="ellipse;whiteSpace=wrap;html=1;" vertex="1" parent="1">
          <mxGeometry x="580" y="470" width="90" height="30" as="geometry" />
        </mxCell>
        <mxCell id="ZoLgGPwyBZnqr0tmu89g-16" value="descripcion" style="ellipse;whiteSpace=wrap;html=1;" vertex="1" parent="1">
          <mxGeometry x="680" y="370" width="90" height="30" as="geometry" />
        </mxCell>
        <mxCell id="ZoLgGPwyBZnqr0tmu89g-17" value="categoria" style="ellipse;whiteSpace=wrap;html=1;" vertex="1" parent="1">
          <mxGeometry x="730" y="420" width="90" height="30" as="geometry" />
        </mxCell>
        <mxCell id="ZoLgGPwyBZnqr0tmu89g-18" value="nombre" style="ellipse;whiteSpace=wrap;html=1;" vertex="1" parent="1">
          <mxGeometry x="630" y="420" width="90" height="30" as="geometry" />
        </mxCell>
        <mxCell id="ZoLgGPwyBZnqr0tmu89g-19" value="" style="endArrow=none;html=1;rounded=0;entryX=0.816;entryY=0.999;entryDx=0;entryDy=0;entryPerimeter=0;exitX=0.25;exitY=0;exitDx=0;exitDy=0;" edge="1" parent="1" source="ZoLgGPwyBZnqr0tmu89g-14" target="ZoLgGPwyBZnqr0tmu89g-18">
          <mxGeometry relative="1" as="geometry">
            <mxPoint x="750" y="510" as="sourcePoint" />
            <mxPoint x="1300" y="680" as="targetPoint" />
          </mxGeometry>
        </mxCell>
        <mxCell id="ZoLgGPwyBZnqr0tmu89g-20" value="" style="resizable=0;html=1;whiteSpace=wrap;align=right;verticalAlign=bottom;" connectable="0" vertex="1" parent="ZoLgGPwyBZnqr0tmu89g-19">
          <mxGeometry x="1" relative="1" as="geometry" />
        </mxCell>
        <mxCell id="ZoLgGPwyBZnqr0tmu89g-21" value="" style="endArrow=none;html=1;rounded=0;entryX=1;entryY=1;entryDx=0;entryDy=0;exitX=0;exitY=0.25;exitDx=0;exitDy=0;exitPerimeter=0;" edge="1" parent="1" source="ZoLgGPwyBZnqr0tmu89g-14" target="ZoLgGPwyBZnqr0tmu89g-15">
          <mxGeometry relative="1" as="geometry">
            <mxPoint x="760" y="516" as="sourcePoint" />
            <mxPoint x="713" y="460" as="targetPoint" />
          </mxGeometry>
        </mxCell>
        <mxCell id="ZoLgGPwyBZnqr0tmu89g-22" value="" style="resizable=0;html=1;whiteSpace=wrap;align=right;verticalAlign=bottom;" connectable="0" vertex="1" parent="ZoLgGPwyBZnqr0tmu89g-21">
          <mxGeometry x="1" relative="1" as="geometry" />
        </mxCell>
        <mxCell id="ZoLgGPwyBZnqr0tmu89g-23" value="" style="endArrow=none;html=1;rounded=0;exitX=0.25;exitY=0;exitDx=0;exitDy=0;" edge="1" parent="1" source="ZoLgGPwyBZnqr0tmu89g-14" target="ZoLgGPwyBZnqr0tmu89g-16">
          <mxGeometry relative="1" as="geometry">
            <mxPoint x="760" y="516" as="sourcePoint" />
            <mxPoint x="713" y="460" as="targetPoint" />
          </mxGeometry>
        </mxCell>
        <mxCell id="ZoLgGPwyBZnqr0tmu89g-24" value="" style="resizable=0;html=1;whiteSpace=wrap;align=right;verticalAlign=bottom;" connectable="0" vertex="1" parent="ZoLgGPwyBZnqr0tmu89g-23">
          <mxGeometry x="1" relative="1" as="geometry" />
        </mxCell>
        <mxCell id="ZoLgGPwyBZnqr0tmu89g-25" value="" style="endArrow=none;html=1;rounded=0;entryX=0.284;entryY=0.976;entryDx=0;entryDy=0;entryPerimeter=0;" edge="1" parent="1" source="ZoLgGPwyBZnqr0tmu89g-14" target="ZoLgGPwyBZnqr0tmu89g-17">
          <mxGeometry relative="1" as="geometry">
            <mxPoint x="785" y="510" as="sourcePoint" />
            <mxPoint x="808" y="460" as="targetPoint" />
          </mxGeometry>
        </mxCell>
        <mxCell id="ZoLgGPwyBZnqr0tmu89g-26" value="" style="resizable=0;html=1;whiteSpace=wrap;align=right;verticalAlign=bottom;" connectable="0" vertex="1" parent="ZoLgGPwyBZnqr0tmu89g-25">
          <mxGeometry x="1" relative="1" as="geometry" />
        </mxCell>
        <mxCell id="ZoLgGPwyBZnqr0tmu89g-27" value="Inventario" style="rounded=1;arcSize=10;whiteSpace=wrap;html=1;align=center;" vertex="1" parent="1">
          <mxGeometry x="544.44" y="790" width="100" height="40" as="geometry" />
        </mxCell>
        <mxCell id="ZoLgGPwyBZnqr0tmu89g-28" value="codigo" style="ellipse;whiteSpace=wrap;html=1;" vertex="1" parent="1">
          <mxGeometry x="404.44" y="770" width="90" height="30" as="geometry" />
        </mxCell>
        <mxCell id="ZoLgGPwyBZnqr0tmu89g-29" value="stock" style="ellipse;whiteSpace=wrap;html=1;" vertex="1" parent="1">
          <mxGeometry x="324.44" y="720" width="90" height="30" as="geometry" />
        </mxCell>
        <mxCell id="ZoLgGPwyBZnqr0tmu89g-30" value="porcentajeDescuento" style="ellipse;whiteSpace=wrap;html=1;" vertex="1" parent="1">
          <mxGeometry x="494.44" y="660" width="145" height="30" as="geometry" />
        </mxCell>
        <mxCell id="ZoLgGPwyBZnqr0tmu89g-31" value="fecha" style="ellipse;whiteSpace=wrap;html=1;" vertex="1" parent="1">
          <mxGeometry x="454.44" y="704.51" width="90" height="30" as="geometry" />
        </mxCell>
        <mxCell id="ZoLgGPwyBZnqr0tmu89g-32" value="" style="endArrow=none;html=1;rounded=0;entryX=0.816;entryY=0.999;entryDx=0;entryDy=0;entryPerimeter=0;exitX=0.25;exitY=0;exitDx=0;exitDy=0;" edge="1" parent="1" source="ZoLgGPwyBZnqr0tmu89g-27" target="ZoLgGPwyBZnqr0tmu89g-31">
          <mxGeometry relative="1" as="geometry">
            <mxPoint x="574.44" y="810" as="sourcePoint" />
            <mxPoint x="1124.44" y="980" as="targetPoint" />
          </mxGeometry>
        </mxCell>
        <mxCell id="ZoLgGPwyBZnqr0tmu89g-33" value="" style="resizable=0;html=1;whiteSpace=wrap;align=right;verticalAlign=bottom;" connectable="0" vertex="1" parent="ZoLgGPwyBZnqr0tmu89g-32">
          <mxGeometry x="1" relative="1" as="geometry" />
        </mxCell>
        <mxCell id="ZoLgGPwyBZnqr0tmu89g-34" value="" style="endArrow=none;html=1;rounded=0;entryX=1;entryY=1;entryDx=0;entryDy=0;exitX=0;exitY=0.25;exitDx=0;exitDy=0;exitPerimeter=0;" edge="1" parent="1" source="ZoLgGPwyBZnqr0tmu89g-27" target="ZoLgGPwyBZnqr0tmu89g-28">
          <mxGeometry relative="1" as="geometry">
            <mxPoint x="584.44" y="816" as="sourcePoint" />
            <mxPoint x="537.44" y="760" as="targetPoint" />
          </mxGeometry>
        </mxCell>
        <mxCell id="ZoLgGPwyBZnqr0tmu89g-35" value="" style="resizable=0;html=1;whiteSpace=wrap;align=right;verticalAlign=bottom;" connectable="0" vertex="1" parent="ZoLgGPwyBZnqr0tmu89g-34">
          <mxGeometry x="1" relative="1" as="geometry" />
        </mxCell>
        <mxCell id="ZoLgGPwyBZnqr0tmu89g-36" value="" style="endArrow=none;html=1;rounded=0;exitX=0.25;exitY=0;exitDx=0;exitDy=0;" edge="1" parent="1" source="ZoLgGPwyBZnqr0tmu89g-27" target="ZoLgGPwyBZnqr0tmu89g-29">
          <mxGeometry relative="1" as="geometry">
            <mxPoint x="584.44" y="816" as="sourcePoint" />
            <mxPoint x="537.44" y="760" as="targetPoint" />
          </mxGeometry>
        </mxCell>
        <mxCell id="ZoLgGPwyBZnqr0tmu89g-37" value="" style="resizable=0;html=1;whiteSpace=wrap;align=right;verticalAlign=bottom;" connectable="0" vertex="1" parent="ZoLgGPwyBZnqr0tmu89g-36">
          <mxGeometry x="1" relative="1" as="geometry" />
        </mxCell>
        <mxCell id="ZoLgGPwyBZnqr0tmu89g-38" value="" style="endArrow=none;html=1;rounded=0;entryX=0.284;entryY=0.976;entryDx=0;entryDy=0;entryPerimeter=0;" edge="1" parent="1" source="ZoLgGPwyBZnqr0tmu89g-27">
          <mxGeometry relative="1" as="geometry">
            <mxPoint x="609.44" y="810" as="sourcePoint" />
            <mxPoint x="590.6200000000003" y="719.28" as="targetPoint" />
          </mxGeometry>
        </mxCell>
        <mxCell id="ZoLgGPwyBZnqr0tmu89g-39" value="" style="resizable=0;html=1;whiteSpace=wrap;align=right;verticalAlign=bottom;" connectable="0" vertex="1" parent="ZoLgGPwyBZnqr0tmu89g-38">
          <mxGeometry x="1" relative="1" as="geometry" />
        </mxCell>
        <mxCell id="ZoLgGPwyBZnqr0tmu89g-40" value="" style="resizable=0;html=1;whiteSpace=wrap;align=right;verticalAlign=bottom;" connectable="0" vertex="1" parent="1">
          <mxGeometry x="629.9266030471349" y="739.5117919419122" as="geometry" />
        </mxCell>
        <mxCell id="ZoLgGPwyBZnqr0tmu89g-41" value="porcentajeIva" style="ellipse;whiteSpace=wrap;html=1;" vertex="1" parent="1">
          <mxGeometry x="570" y="704.51" width="90" height="30" as="geometry" />
        </mxCell>
        <mxCell id="ZoLgGPwyBZnqr0tmu89g-44" value="Se realiza con" style="shape=rhombus;double=1;perimeter=rhombusPerimeter;whiteSpace=wrap;html=1;align=center;" vertex="1" parent="1">
          <mxGeometry x="650" y="605" width="120" height="60" as="geometry" />
        </mxCell>
        <mxCell id="ZoLgGPwyBZnqr0tmu89g-51" value="" style="endArrow=none;html=1;rounded=0;exitX=0.424;exitY=0.982;exitDx=0;exitDy=0;exitPerimeter=0;" edge="1" parent="1" source="ZoLgGPwyBZnqr0tmu89g-14" target="ZoLgGPwyBZnqr0tmu89g-44">
          <mxGeometry relative="1" as="geometry">
            <mxPoint x="570" y="600" as="sourcePoint" />
            <mxPoint x="730" y="600" as="targetPoint" />
          </mxGeometry>
        </mxCell>
        <mxCell id="ZoLgGPwyBZnqr0tmu89g-52" value="1" style="resizable=0;html=1;whiteSpace=wrap;align=left;verticalAlign=bottom;" connectable="0" vertex="1" parent="ZoLgGPwyBZnqr0tmu89g-51">
          <mxGeometry x="-1" relative="1" as="geometry">
            <mxPoint y="21" as="offset" />
          </mxGeometry>
        </mxCell>
        <mxCell id="ZoLgGPwyBZnqr0tmu89g-53" value="N" style="resizable=0;html=1;whiteSpace=wrap;align=right;verticalAlign=bottom;" connectable="0" vertex="1" parent="ZoLgGPwyBZnqr0tmu89g-51">
          <mxGeometry x="1" relative="1" as="geometry" />
        </mxCell>
        <mxCell id="ZoLgGPwyBZnqr0tmu89g-54" value="" style="endArrow=none;html=1;rounded=0;exitX=1;exitY=0.25;exitDx=0;exitDy=0;" edge="1" parent="1" source="ZoLgGPwyBZnqr0tmu89g-27" target="ZoLgGPwyBZnqr0tmu89g-44">
          <mxGeometry relative="1" as="geometry">
            <mxPoint x="680" y="690" as="sourcePoint" />
            <mxPoint x="640" y="772" as="targetPoint" />
          </mxGeometry>
        </mxCell>
        <mxCell id="ZoLgGPwyBZnqr0tmu89g-55" value="1" style="resizable=0;html=1;whiteSpace=wrap;align=left;verticalAlign=bottom;" connectable="0" vertex="1" parent="ZoLgGPwyBZnqr0tmu89g-54">
          <mxGeometry x="-1" relative="1" as="geometry">
            <mxPoint y="21" as="offset" />
          </mxGeometry>
        </mxCell>
        <mxCell id="ZoLgGPwyBZnqr0tmu89g-56" value="1" style="resizable=0;html=1;whiteSpace=wrap;align=right;verticalAlign=bottom;" connectable="0" vertex="1" parent="ZoLgGPwyBZnqr0tmu89g-54">
          <mxGeometry x="1" relative="1" as="geometry">
            <mxPoint y="21" as="offset" />
          </mxGeometry>
        </mxCell>
        <mxCell id="ZoLgGPwyBZnqr0tmu89g-57" value="1:N" style="text;html=1;strokeColor=none;fillColor=none;align=center;verticalAlign=middle;whiteSpace=wrap;rounded=0;" vertex="1" parent="1">
          <mxGeometry x="770" y="620" width="40" height="30" as="geometry" />
        </mxCell>
        <mxCell id="ZoLgGPwyBZnqr0tmu89g-58" value="FacturaCliente" style="rounded=1;arcSize=10;whiteSpace=wrap;html=1;align=center;" vertex="1" parent="1">
          <mxGeometry x="160" y="455" width="100" height="40" as="geometry" />
        </mxCell>
        <mxCell id="ZoLgGPwyBZnqr0tmu89g-59" value="numeroFactura" style="ellipse;whiteSpace=wrap;html=1;" vertex="1" parent="1">
          <mxGeometry x="10" y="515" width="90" height="30" as="geometry" />
        </mxCell>
        <mxCell id="ZoLgGPwyBZnqr0tmu89g-60" value="estado" style="ellipse;whiteSpace=wrap;html=1;" vertex="1" parent="1">
          <mxGeometry x="10" y="420" width="90" height="30" as="geometry" />
        </mxCell>
        <mxCell id="ZoLgGPwyBZnqr0tmu89g-62" value="fecha" style="ellipse;whiteSpace=wrap;html=1;" vertex="1" parent="1">
          <mxGeometry x="10" y="470" width="90" height="30" as="geometry" />
        </mxCell>
        <mxCell id="ZoLgGPwyBZnqr0tmu89g-63" value="" style="endArrow=none;html=1;rounded=0;entryX=0.816;entryY=0.999;entryDx=0;entryDy=0;entryPerimeter=0;exitX=0;exitY=0.25;exitDx=0;exitDy=0;" edge="1" parent="1" source="ZoLgGPwyBZnqr0tmu89g-58" target="ZoLgGPwyBZnqr0tmu89g-62">
          <mxGeometry relative="1" as="geometry">
            <mxPoint x="210" y="460" as="sourcePoint" />
            <mxPoint x="760" y="630" as="targetPoint" />
          </mxGeometry>
        </mxCell>
        <mxCell id="ZoLgGPwyBZnqr0tmu89g-64" value="" style="resizable=0;html=1;whiteSpace=wrap;align=right;verticalAlign=bottom;" connectable="0" vertex="1" parent="ZoLgGPwyBZnqr0tmu89g-63">
          <mxGeometry x="1" relative="1" as="geometry" />
        </mxCell>
        <mxCell id="ZoLgGPwyBZnqr0tmu89g-65" value="" style="endArrow=none;html=1;rounded=0;entryX=1;entryY=1;entryDx=0;entryDy=0;exitX=0;exitY=0.25;exitDx=0;exitDy=0;exitPerimeter=0;" edge="1" parent="1" source="ZoLgGPwyBZnqr0tmu89g-58" target="ZoLgGPwyBZnqr0tmu89g-59">
          <mxGeometry relative="1" as="geometry">
            <mxPoint x="220" y="466" as="sourcePoint" />
            <mxPoint x="173" y="410" as="targetPoint" />
          </mxGeometry>
        </mxCell>
        <mxCell id="ZoLgGPwyBZnqr0tmu89g-66" value="" style="resizable=0;html=1;whiteSpace=wrap;align=right;verticalAlign=bottom;" connectable="0" vertex="1" parent="ZoLgGPwyBZnqr0tmu89g-65">
          <mxGeometry x="1" relative="1" as="geometry" />
        </mxCell>
        <mxCell id="ZoLgGPwyBZnqr0tmu89g-67" value="" style="endArrow=none;html=1;rounded=0;exitX=0;exitY=0.25;exitDx=0;exitDy=0;" edge="1" parent="1" source="ZoLgGPwyBZnqr0tmu89g-58" target="ZoLgGPwyBZnqr0tmu89g-60">
          <mxGeometry relative="1" as="geometry">
            <mxPoint x="220" y="466" as="sourcePoint" />
            <mxPoint x="173" y="410" as="targetPoint" />
          </mxGeometry>
        </mxCell>
        <mxCell id="ZoLgGPwyBZnqr0tmu89g-68" value="" style="resizable=0;html=1;whiteSpace=wrap;align=right;verticalAlign=bottom;" connectable="0" vertex="1" parent="ZoLgGPwyBZnqr0tmu89g-67">
          <mxGeometry x="1" relative="1" as="geometry" />
        </mxCell>
        <mxCell id="ZoLgGPwyBZnqr0tmu89g-71" value="tiene" style="shape=rhombus;double=1;perimeter=rhombusPerimeter;whiteSpace=wrap;html=1;align=center;" vertex="1" parent="1">
          <mxGeometry x="150" y="350" width="120" height="60" as="geometry" />
        </mxCell>
        <mxCell id="ZoLgGPwyBZnqr0tmu89g-72" value="" style="endArrow=none;html=1;rounded=0;exitX=0.5;exitY=1;exitDx=0;exitDy=0;entryX=0.5;entryY=0;entryDx=0;entryDy=0;" edge="1" parent="1" source="ZoLgGPwyBZnqr0tmu89g-1" target="ZoLgGPwyBZnqr0tmu89g-71">
          <mxGeometry relative="1" as="geometry">
            <mxPoint x="340" y="352" as="sourcePoint" />
            <mxPoint x="300" y="434" as="targetPoint" />
          </mxGeometry>
        </mxCell>
        <mxCell id="ZoLgGPwyBZnqr0tmu89g-73" value="1" style="resizable=0;html=1;whiteSpace=wrap;align=left;verticalAlign=bottom;" connectable="0" vertex="1" parent="ZoLgGPwyBZnqr0tmu89g-72">
          <mxGeometry x="-1" relative="1" as="geometry">
            <mxPoint x="-10" y="21" as="offset" />
          </mxGeometry>
        </mxCell>
        <mxCell id="ZoLgGPwyBZnqr0tmu89g-74" value="N" style="resizable=0;html=1;whiteSpace=wrap;align=right;verticalAlign=bottom;" connectable="0" vertex="1" parent="ZoLgGPwyBZnqr0tmu89g-72">
          <mxGeometry x="1" relative="1" as="geometry">
            <mxPoint as="offset" />
          </mxGeometry>
        </mxCell>
        <mxCell id="ZoLgGPwyBZnqr0tmu89g-75" value="" style="endArrow=none;html=1;rounded=0;exitX=0.5;exitY=1;exitDx=0;exitDy=0;entryX=0.5;entryY=0;entryDx=0;entryDy=0;" edge="1" parent="1" source="ZoLgGPwyBZnqr0tmu89g-71" target="ZoLgGPwyBZnqr0tmu89g-58">
          <mxGeometry relative="1" as="geometry">
            <mxPoint x="209.76" y="410" as="sourcePoint" />
            <mxPoint x="210" y="460" as="targetPoint" />
          </mxGeometry>
        </mxCell>
        <mxCell id="ZoLgGPwyBZnqr0tmu89g-76" value="1" style="resizable=0;html=1;whiteSpace=wrap;align=left;verticalAlign=bottom;" connectable="0" vertex="1" parent="ZoLgGPwyBZnqr0tmu89g-75">
          <mxGeometry x="-1" relative="1" as="geometry">
            <mxPoint x="-10" y="25" as="offset" />
          </mxGeometry>
        </mxCell>
        <mxCell id="ZoLgGPwyBZnqr0tmu89g-77" value="1" style="resizable=0;html=1;whiteSpace=wrap;align=right;verticalAlign=bottom;" connectable="0" vertex="1" parent="ZoLgGPwyBZnqr0tmu89g-75">
          <mxGeometry x="1" relative="1" as="geometry">
            <mxPoint as="offset" />
          </mxGeometry>
        </mxCell>
        <mxCell id="ZoLgGPwyBZnqr0tmu89g-79" value="1:N" style="text;html=1;strokeColor=none;fillColor=none;align=center;verticalAlign=middle;whiteSpace=wrap;rounded=0;" vertex="1" parent="1">
          <mxGeometry x="270" y="365" width="40" height="30" as="geometry" />
        </mxCell>
        <mxCell id="ZoLgGPwyBZnqr0tmu89g-80" value="Se agrega" style="shape=rhombus;double=1;perimeter=rhombusPerimeter;whiteSpace=wrap;html=1;align=center;" vertex="1" parent="1">
          <mxGeometry x="334.44" y="480" width="120" height="60" as="geometry" />
        </mxCell>
        <mxCell id="ZoLgGPwyBZnqr0tmu89g-81" value="" style="endArrow=none;html=1;rounded=0;exitX=1;exitY=0.75;exitDx=0;exitDy=0;entryX=0;entryY=0.5;entryDx=0;entryDy=0;" edge="1" parent="1" source="ZoLgGPwyBZnqr0tmu89g-58" target="ZoLgGPwyBZnqr0tmu89g-80">
          <mxGeometry relative="1" as="geometry">
            <mxPoint x="270" y="530" as="sourcePoint" />
            <mxPoint x="230" y="612" as="targetPoint" />
          </mxGeometry>
        </mxCell>
        <mxCell id="ZoLgGPwyBZnqr0tmu89g-82" value="1" style="resizable=0;html=1;whiteSpace=wrap;align=left;verticalAlign=bottom;" connectable="0" vertex="1" parent="ZoLgGPwyBZnqr0tmu89g-81">
          <mxGeometry x="-1" relative="1" as="geometry">
            <mxPoint y="5" as="offset" />
          </mxGeometry>
        </mxCell>
        <mxCell id="ZoLgGPwyBZnqr0tmu89g-83" value="N" style="resizable=0;html=1;whiteSpace=wrap;align=right;verticalAlign=bottom;" connectable="0" vertex="1" parent="ZoLgGPwyBZnqr0tmu89g-81">
          <mxGeometry x="1" relative="1" as="geometry" />
        </mxCell>
        <mxCell id="ZoLgGPwyBZnqr0tmu89g-85" value="" style="endArrow=none;html=1;rounded=0;exitX=0.924;exitY=0.443;exitDx=0;exitDy=0;exitPerimeter=0;entryX=0;entryY=0.75;entryDx=0;entryDy=0;" edge="1" parent="1" source="ZoLgGPwyBZnqr0tmu89g-80" target="ZoLgGPwyBZnqr0tmu89g-14">
          <mxGeometry relative="1" as="geometry">
            <mxPoint x="480" y="540" as="sourcePoint" />
            <mxPoint x="563" y="556" as="targetPoint" />
          </mxGeometry>
        </mxCell>
        <mxCell id="ZoLgGPwyBZnqr0tmu89g-86" value="N" style="resizable=0;html=1;whiteSpace=wrap;align=left;verticalAlign=bottom;" connectable="0" vertex="1" parent="ZoLgGPwyBZnqr0tmu89g-85">
          <mxGeometry x="-1" relative="1" as="geometry">
            <mxPoint y="21" as="offset" />
          </mxGeometry>
        </mxCell>
        <mxCell id="ZoLgGPwyBZnqr0tmu89g-87" value="1" style="resizable=0;html=1;whiteSpace=wrap;align=right;verticalAlign=bottom;" connectable="0" vertex="1" parent="ZoLgGPwyBZnqr0tmu89g-85">
          <mxGeometry x="1" relative="1" as="geometry">
            <mxPoint y="20" as="offset" />
          </mxGeometry>
        </mxCell>
        <mxCell id="ZoLgGPwyBZnqr0tmu89g-88" value="N : M" style="text;html=1;strokeColor=none;fillColor=none;align=center;verticalAlign=middle;whiteSpace=wrap;rounded=0;" vertex="1" parent="1">
          <mxGeometry x="374.44" y="455" width="40" height="30" as="geometry" />
        </mxCell>
        <mxCell id="ZoLgGPwyBZnqr0tmu89g-89" value="cantidad" style="ellipse;whiteSpace=wrap;html=1;" vertex="1" parent="1">
          <mxGeometry x="180" y="590" width="90" height="30" as="geometry" />
        </mxCell>
        <mxCell id="ZoLgGPwyBZnqr0tmu89g-90" value="" style="resizable=0;html=1;whiteSpace=wrap;align=right;verticalAlign=bottom;" connectable="0" vertex="1" parent="1">
          <mxGeometry x="257.40679450039215" y="615.4464194141442" as="geometry" />
        </mxCell>
        <mxCell id="ZoLgGPwyBZnqr0tmu89g-91" value="" style="endArrow=none;html=1;rounded=0;exitX=0.141;exitY=0.649;exitDx=0;exitDy=0;exitPerimeter=0;" edge="1" parent="1" source="ZoLgGPwyBZnqr0tmu89g-80" target="ZoLgGPwyBZnqr0tmu89g-89">
          <mxGeometry relative="1" as="geometry">
            <mxPoint x="353" y="585" as="sourcePoint" />
            <mxPoint x="290" y="580" as="targetPoint" />
          </mxGeometry>
        </mxCell>
        <mxCell id="ZoLgGPwyBZnqr0tmu89g-92" value="" style="resizable=0;html=1;whiteSpace=wrap;align=right;verticalAlign=bottom;" connectable="0" vertex="1" parent="ZoLgGPwyBZnqr0tmu89g-91">
          <mxGeometry x="1" relative="1" as="geometry" />
        </mxCell>
        <mxCell id="ZoLgGPwyBZnqr0tmu89g-93" value="valorBruto" style="ellipse;whiteSpace=wrap;html=1;" vertex="1" parent="1">
          <mxGeometry x="284.43999999999994" y="605" width="90" height="30" as="geometry" />
        </mxCell>
        <mxCell id="ZoLgGPwyBZnqr0tmu89g-94" value="valorNeto" style="ellipse;whiteSpace=wrap;html=1;" vertex="1" parent="1">
          <mxGeometry x="324" y="635" width="90" height="30" as="geometry" />
        </mxCell>
        <mxCell id="ZoLgGPwyBZnqr0tmu89g-95" value="valorDescuento" style="ellipse;whiteSpace=wrap;html=1;" vertex="1" parent="1">
          <mxGeometry x="440" y="555" width="90" height="30" as="geometry" />
        </mxCell>
        <mxCell id="ZoLgGPwyBZnqr0tmu89g-96" value="valorIva" style="ellipse;whiteSpace=wrap;html=1;" vertex="1" parent="1">
          <mxGeometry x="400" y="605" width="90" height="30" as="geometry" />
        </mxCell>
        <mxCell id="ZoLgGPwyBZnqr0tmu89g-97" value="" style="endArrow=none;html=1;rounded=0;exitX=0.141;exitY=0.649;exitDx=0;exitDy=0;exitPerimeter=0;" edge="1" parent="1">
          <mxGeometry relative="1" as="geometry">
            <mxPoint x="351" y="519" as="sourcePoint" />
            <mxPoint x="245" y="592" as="targetPoint" />
          </mxGeometry>
        </mxCell>
        <mxCell id="ZoLgGPwyBZnqr0tmu89g-98" value="" style="resizable=0;html=1;whiteSpace=wrap;align=right;verticalAlign=bottom;" connectable="0" vertex="1" parent="ZoLgGPwyBZnqr0tmu89g-97">
          <mxGeometry x="1" relative="1" as="geometry" />
        </mxCell>
        <mxCell id="ZoLgGPwyBZnqr0tmu89g-99" value="" style="endArrow=none;html=1;rounded=0;" edge="1" parent="1" source="ZoLgGPwyBZnqr0tmu89g-80" target="ZoLgGPwyBZnqr0tmu89g-93">
          <mxGeometry relative="1" as="geometry">
            <mxPoint x="361" y="529" as="sourcePoint" />
            <mxPoint x="255" y="602" as="targetPoint" />
          </mxGeometry>
        </mxCell>
        <mxCell id="ZoLgGPwyBZnqr0tmu89g-100" value="" style="resizable=0;html=1;whiteSpace=wrap;align=right;verticalAlign=bottom;" connectable="0" vertex="1" parent="ZoLgGPwyBZnqr0tmu89g-99">
          <mxGeometry x="1" relative="1" as="geometry" />
        </mxCell>
        <mxCell id="ZoLgGPwyBZnqr0tmu89g-101" value="" style="endArrow=none;html=1;rounded=0;exitX=0.5;exitY=1;exitDx=0;exitDy=0;" edge="1" parent="1" source="ZoLgGPwyBZnqr0tmu89g-80" target="ZoLgGPwyBZnqr0tmu89g-94">
          <mxGeometry relative="1" as="geometry">
            <mxPoint x="371" y="539" as="sourcePoint" />
            <mxPoint x="265" y="612" as="targetPoint" />
          </mxGeometry>
        </mxCell>
        <mxCell id="ZoLgGPwyBZnqr0tmu89g-102" value="" style="resizable=0;html=1;whiteSpace=wrap;align=right;verticalAlign=bottom;" connectable="0" vertex="1" parent="ZoLgGPwyBZnqr0tmu89g-101">
          <mxGeometry x="1" relative="1" as="geometry" />
        </mxCell>
        <mxCell id="ZoLgGPwyBZnqr0tmu89g-103" value="" style="endArrow=none;html=1;rounded=0;exitX=0.601;exitY=0.936;exitDx=0;exitDy=0;exitPerimeter=0;" edge="1" parent="1" source="ZoLgGPwyBZnqr0tmu89g-80" target="ZoLgGPwyBZnqr0tmu89g-96">
          <mxGeometry relative="1" as="geometry">
            <mxPoint x="381" y="549" as="sourcePoint" />
            <mxPoint x="275" y="622" as="targetPoint" />
          </mxGeometry>
        </mxCell>
        <mxCell id="ZoLgGPwyBZnqr0tmu89g-104" value="" style="resizable=0;html=1;whiteSpace=wrap;align=right;verticalAlign=bottom;" connectable="0" vertex="1" parent="ZoLgGPwyBZnqr0tmu89g-103">
          <mxGeometry x="1" relative="1" as="geometry" />
        </mxCell>
        <mxCell id="ZoLgGPwyBZnqr0tmu89g-108" value="" style="endArrow=none;html=1;rounded=0;exitX=1;exitY=1;exitDx=0;exitDy=0;entryX=0;entryY=0;entryDx=0;entryDy=0;" edge="1" parent="1" source="ZoLgGPwyBZnqr0tmu89g-80" target="ZoLgGPwyBZnqr0tmu89g-95">
          <mxGeometry relative="1" as="geometry">
            <mxPoint x="391" y="559" as="sourcePoint" />
            <mxPoint x="285" y="632" as="targetPoint" />
          </mxGeometry>
        </mxCell>
        <mxCell id="ZoLgGPwyBZnqr0tmu89g-109" value="" style="resizable=0;html=1;whiteSpace=wrap;align=right;verticalAlign=bottom;" connectable="0" vertex="1" parent="ZoLgGPwyBZnqr0tmu89g-108">
          <mxGeometry x="1" relative="1" as="geometry" />
        </mxCell>
        <mxCell id="ZoLgGPwyBZnqr0tmu89g-120" value="" style="rounded=1;whiteSpace=wrap;html=1;fillColor=#dae8fc;strokeColor=#6c8ebf;" vertex="1" parent="1">
          <mxGeometry x="10" y="-1140" width="800" height="580" as="geometry" />
        </mxCell>
        <mxCell id="ZoLgGPwyBZnqr0tmu89g-121" value="&lt;p style=&quot;margin:0px;margin-top:4px;text-align:center;&quot;&gt;Cliente&lt;br&gt;&lt;/p&gt;&lt;hr size=&quot;1&quot;&gt;&lt;p style=&quot;margin:0px;margin-left:4px;&quot;&gt;- tipoDocumento : String&lt;/p&gt;&lt;p style=&quot;margin:0px;margin-left:4px;&quot;&gt;- documento : String&lt;/p&gt;&lt;p style=&quot;margin:0px;margin-left:4px;&quot;&gt;- nombre : String&lt;/p&gt;&lt;p style=&quot;margin:0px;margin-left:4px;&quot;&gt;- correo : String&lt;/p&gt;&lt;hr size=&quot;1&quot;&gt;&lt;p style=&quot;border-color: var(--border-color); margin: 0px 0px 0px 4px;&quot;&gt;+ getter &amp;amp; setter&lt;/p&gt;&lt;p style=&quot;border-color: var(--border-color); margin: 0px 0px 0px 4px;&quot;&gt;+ Crear&lt;/p&gt;&lt;p style=&quot;border-color: var(--border-color); margin: 0px 0px 0px 4px;&quot;&gt;+ Modificar&lt;/p&gt;&lt;p style=&quot;border-color: var(--border-color); margin: 0px 0px 0px 4px;&quot;&gt;+ Eliminar&lt;/p&gt;&lt;p style=&quot;border-color: var(--border-color); margin: 0px 0px 0px 4px;&quot;&gt;+ Consultar&lt;/p&gt;" style="verticalAlign=top;align=left;overflow=fill;fontSize=12;fontFamily=Helvetica;html=1;whiteSpace=wrap;" vertex="1" parent="1">
          <mxGeometry x="97" y="-1120" width="160" height="180" as="geometry" />
        </mxCell>
        <mxCell id="ZoLgGPwyBZnqr0tmu89g-122" value="&lt;p style=&quot;margin:0px;margin-top:4px;text-align:center;&quot;&gt;Producto&lt;br&gt;&lt;/p&gt;&lt;hr size=&quot;1&quot;&gt;&lt;p style=&quot;margin:0px;margin-left:4px;&quot;&gt;- codigo : String&lt;/p&gt;&lt;p style=&quot;margin:0px;margin-left:4px;&quot;&gt;- nombre : String&lt;/p&gt;&lt;p style=&quot;margin:0px;margin-left:4px;&quot;&gt;- descricion : String&lt;/p&gt;&lt;p style=&quot;margin:0px;margin-left:4px;&quot;&gt;- categoria : String&lt;/p&gt;&lt;hr size=&quot;1&quot;&gt;&lt;p style=&quot;border-color: var(--border-color); margin: 0px 0px 0px 4px;&quot;&gt;+ getter &amp;amp; setter&lt;/p&gt;&lt;p style=&quot;border-color: var(--border-color); margin: 0px 0px 0px 4px;&quot;&gt;+ Crear&lt;/p&gt;&lt;p style=&quot;border-color: var(--border-color); margin: 0px 0px 0px 4px;&quot;&gt;+ Modificar&lt;/p&gt;&lt;p style=&quot;border-color: var(--border-color); margin: 0px 0px 0px 4px;&quot;&gt;+ Eliminar&lt;/p&gt;&lt;p style=&quot;border-color: var(--border-color); margin: 0px 0px 0px 4px;&quot;&gt;+ Consultar&lt;/p&gt;" style="verticalAlign=top;align=left;overflow=fill;fontSize=12;fontFamily=Helvetica;html=1;whiteSpace=wrap;" vertex="1" parent="1">
          <mxGeometry x="607" y="-940" width="160" height="180" as="geometry" />
        </mxCell>
        <mxCell id="ZoLgGPwyBZnqr0tmu89g-123" value="&lt;p style=&quot;margin:0px;margin-top:4px;text-align:center;&quot;&gt;Inventario&lt;br&gt;&lt;/p&gt;&lt;hr size=&quot;1&quot;&gt;&lt;p style=&quot;margin:0px;margin-left:4px;&quot;&gt;- codigo : String&lt;/p&gt;&lt;p style=&quot;margin:0px;margin-left:4px;&quot;&gt;- fecha : Date&lt;/p&gt;&lt;p style=&quot;margin:0px;margin-left:4px;&quot;&gt;- stock : Integer&lt;/p&gt;&lt;p style=&quot;margin:0px;margin-left:4px;&quot;&gt;- porcentajeDescuento Double&lt;/p&gt;&lt;p style=&quot;margin:0px;margin-left:4px;&quot;&gt;- porcentajeIva : Double&lt;/p&gt;&lt;hr size=&quot;1&quot;&gt;&lt;p style=&quot;border-color: var(--border-color); margin: 0px 0px 0px 4px;&quot;&gt;+ getter &amp;amp; setter&lt;/p&gt;&lt;p style=&quot;border-color: var(--border-color); margin: 0px 0px 0px 4px;&quot;&gt;+ Crear&lt;/p&gt;&lt;p style=&quot;border-color: var(--border-color); margin: 0px 0px 0px 4px;&quot;&gt;+ Modificar&lt;/p&gt;&lt;p style=&quot;border-color: var(--border-color); margin: 0px 0px 0px 4px;&quot;&gt;+ Eliminar&lt;/p&gt;&lt;p style=&quot;border-color: var(--border-color); margin: 0px 0px 0px 4px;&quot;&gt;+ Consultar&lt;/p&gt;" style="verticalAlign=top;align=left;overflow=fill;fontSize=12;fontFamily=Helvetica;html=1;whiteSpace=wrap;" vertex="1" parent="1">
          <mxGeometry x="327" y="-820" width="190" height="190" as="geometry" />
        </mxCell>
        <mxCell id="ZoLgGPwyBZnqr0tmu89g-124" value="" style="endArrow=diamondThin;endFill=1;endSize=24;html=1;rounded=0;exitX=0;exitY=0.5;exitDx=0;exitDy=0;" edge="1" parent="1" source="ZoLgGPwyBZnqr0tmu89g-122" target="ZoLgGPwyBZnqr0tmu89g-123">
          <mxGeometry width="160" relative="1" as="geometry">
            <mxPoint x="627" y="-817.7392452830188" as="sourcePoint" />
            <mxPoint x="537" y="-850.0033962264151" as="targetPoint" />
          </mxGeometry>
        </mxCell>
        <mxCell id="ZoLgGPwyBZnqr0tmu89g-125" value="&lt;p style=&quot;margin:0px;margin-top:4px;text-align:center;&quot;&gt;FacturaCliente&lt;br&gt;&lt;/p&gt;&lt;hr size=&quot;1&quot;&gt;&lt;p style=&quot;margin:0px;margin-left:4px;&quot;&gt;- numeroFactura : String&lt;/p&gt;&lt;p style=&quot;margin:0px;margin-left:4px;&quot;&gt;- fecha : Date&lt;/p&gt;&lt;p style=&quot;margin:0px;margin-left:4px;&quot;&gt;- estadoFactura: String&lt;/p&gt;&lt;hr size=&quot;1&quot;&gt;&lt;p style=&quot;border-color: var(--border-color); margin: 0px 0px 0px 4px;&quot;&gt;+ getter &amp;amp; setter&lt;/p&gt;&lt;p style=&quot;border-color: var(--border-color); margin: 0px 0px 0px 4px;&quot;&gt;+ Crear&lt;/p&gt;&lt;p style=&quot;border-color: var(--border-color); margin: 0px 0px 0px 4px;&quot;&gt;+ Modificar&lt;/p&gt;&lt;p style=&quot;border-color: var(--border-color); margin: 0px 0px 0px 4px;&quot;&gt;+ Eliminar&lt;/p&gt;&lt;p style=&quot;border-color: var(--border-color); margin: 0px 0px 0px 4px;&quot;&gt;+ Consultar&lt;/p&gt;" style="verticalAlign=top;align=left;overflow=fill;fontSize=12;fontFamily=Helvetica;html=1;whiteSpace=wrap;" vertex="1" parent="1">
          <mxGeometry x="57" y="-900" width="190" height="190" as="geometry" />
        </mxCell>
        <mxCell id="ZoLgGPwyBZnqr0tmu89g-126" value="" style="endArrow=diamondThin;endFill=0;endSize=24;html=1;rounded=0;exitX=0.5;exitY=1;exitDx=0;exitDy=0;" edge="1" parent="1" source="ZoLgGPwyBZnqr0tmu89g-121" target="ZoLgGPwyBZnqr0tmu89g-125">
          <mxGeometry width="160" relative="1" as="geometry">
            <mxPoint x="177" y="-630" as="sourcePoint" />
            <mxPoint x="137" y="-860" as="targetPoint" />
          </mxGeometry>
        </mxCell>
        <mxCell id="ZoLgGPwyBZnqr0tmu89g-127" value="&lt;p style=&quot;margin:0px;margin-top:4px;text-align:center;&quot;&gt;DetalleFactura&lt;br&gt;&lt;/p&gt;&lt;hr size=&quot;1&quot;&gt;&lt;p style=&quot;margin:0px;margin-left:4px;&quot;&gt;- cantidad: Integer&lt;/p&gt;&lt;p style=&quot;margin:0px;margin-left:4px;&quot;&gt;- valorBruto : Double&lt;/p&gt;&lt;p style=&quot;margin:0px;margin-left:4px;&quot;&gt;- valorNeto : Double&lt;br&gt;&lt;/p&gt;&lt;p style=&quot;margin:0px;margin-left:4px;&quot;&gt;- valorDescuento : Double&lt;br&gt;&lt;/p&gt;&lt;p style=&quot;margin:0px;margin-left:4px;&quot;&gt;- valorIva : Double&lt;/p&gt;&lt;hr size=&quot;1&quot;&gt;&lt;p style=&quot;border-color: var(--border-color); margin: 0px 0px 0px 4px;&quot;&gt;+ getter &amp;amp; setter&lt;/p&gt;&lt;p style=&quot;border-color: var(--border-color); margin: 0px 0px 0px 4px;&quot;&gt;+ Crear&lt;/p&gt;&lt;p style=&quot;border-color: var(--border-color); margin: 0px 0px 0px 4px;&quot;&gt;+ Modificar&lt;/p&gt;&lt;p style=&quot;border-color: var(--border-color); margin: 0px 0px 0px 4px;&quot;&gt;+ Eliminar&lt;/p&gt;&lt;p style=&quot;border-color: var(--border-color); margin: 0px 0px 0px 4px;&quot;&gt;+ Consultar&lt;/p&gt;" style="verticalAlign=top;align=left;overflow=fill;fontSize=12;fontFamily=Helvetica;html=1;whiteSpace=wrap;" vertex="1" parent="1">
          <mxGeometry x="327" y="-1040" width="190" height="190" as="geometry" />
        </mxCell>
        <mxCell id="ZoLgGPwyBZnqr0tmu89g-128" value="" style="endArrow=diamondThin;endFill=1;endSize=24;html=1;rounded=0;" edge="1" parent="1" source="ZoLgGPwyBZnqr0tmu89g-125" target="ZoLgGPwyBZnqr0tmu89g-127">
          <mxGeometry width="160" relative="1" as="geometry">
            <mxPoint x="167" y="-620" as="sourcePoint" />
            <mxPoint x="327" y="-620" as="targetPoint" />
          </mxGeometry>
        </mxCell>
        <mxCell id="ZoLgGPwyBZnqr0tmu89g-129" value="" style="endArrow=diamondThin;endFill=1;endSize=24;html=1;rounded=0;exitX=0;exitY=0.25;exitDx=0;exitDy=0;" edge="1" parent="1" source="ZoLgGPwyBZnqr0tmu89g-122" target="ZoLgGPwyBZnqr0tmu89g-127">
          <mxGeometry width="160" relative="1" as="geometry">
            <mxPoint x="491" y="-675" as="sourcePoint" />
            <mxPoint x="411" y="-720" as="targetPoint" />
          </mxGeometry>
        </mxCell>
        <mxCell id="ZoLgGPwyBZnqr0tmu89g-130" value="&lt;font style=&quot;font-size: 18px;&quot;&gt;&lt;b&gt;Diagrama de clases (UML )&lt;/b&gt;&lt;/font&gt;" style="text;strokeColor=none;fillColor=none;spacingLeft=4;spacingRight=4;overflow=hidden;rotatable=0;points=[[0,0.5],[1,0.5]];portConstraint=eastwest;fontSize=12;whiteSpace=wrap;html=1;strokeWidth=3;" vertex="1" parent="1">
          <mxGeometry x="307" y="-1100" width="250" height="30" as="geometry" />
        </mxCell>
        <mxCell id="ZoLgGPwyBZnqr0tmu89g-133" value="&lt;font style=&quot;font-size: 18px;&quot;&gt;&lt;b&gt;MÃ³delo Entidad RelaciÃ³n (BD)&lt;/b&gt;&lt;/font&gt;" style="text;strokeColor=none;fillColor=none;spacingLeft=4;spacingRight=4;overflow=hidden;rotatable=0;points=[[0,0.5],[1,0.5]];portConstraint=eastwest;fontSize=12;whiteSpace=wrap;html=1;strokeWidth=3;" vertex="1" parent="1">
          <mxGeometry x="420" y="170" width="280" height="30" as="geometry" />
        </mxCell>
        <mxCell id="ZoLgGPwyBZnqr0tmu89g-134" value="cliente" style="shape=table;startSize=30;container=1;collapsible=1;childLayout=tableLayout;fixedRows=1;rowLines=0;fontStyle=1;align=center;resizeLast=1;html=1;" vertex="1" parent="1">
          <mxGeometry x="10" y="1300" width="190" height="180" as="geometry" />
        </mxCell>
        <mxCell id="ZoLgGPwyBZnqr0tmu89g-135" value="" style="shape=tableRow;horizontal=0;startSize=0;swimlaneHead=0;swimlaneBody=0;fillColor=none;collapsible=0;dropTarget=0;points=[[0,0.5],[1,0.5]];portConstraint=eastwest;top=0;left=0;right=0;bottom=1;" vertex="1" parent="ZoLgGPwyBZnqr0tmu89g-134">
          <mxGeometry y="30" width="190" height="30" as="geometry" />
        </mxCell>
        <mxCell id="ZoLgGPwyBZnqr0tmu89g-136" value="PK" style="shape=partialRectangle;connectable=0;fillColor=none;top=0;left=0;bottom=0;right=0;fontStyle=1;overflow=hidden;whiteSpace=wrap;html=1;" vertex="1" parent="ZoLgGPwyBZnqr0tmu89g-135">
          <mxGeometry width="30" height="30" as="geometry">
            <mxRectangle width="30" height="30" as="alternateBounds" />
          </mxGeometry>
        </mxCell>
        <mxCell id="ZoLgGPwyBZnqr0tmu89g-137" value="id INT" style="shape=partialRectangle;connectable=0;fillColor=none;top=0;left=0;bottom=0;right=0;align=left;spacingLeft=6;fontStyle=5;overflow=hidden;whiteSpace=wrap;html=1;" vertex="1" parent="ZoLgGPwyBZnqr0tmu89g-135">
          <mxGeometry x="30" width="160" height="30" as="geometry">
            <mxRectangle width="160" height="30" as="alternateBounds" />
          </mxGeometry>
        </mxCell>
        <mxCell id="ZoLgGPwyBZnqr0tmu89g-138" value="" style="shape=tableRow;horizontal=0;startSize=0;swimlaneHead=0;swimlaneBody=0;fillColor=none;collapsible=0;dropTarget=0;points=[[0,0.5],[1,0.5]];portConstraint=eastwest;top=0;left=0;right=0;bottom=0;" vertex="1" parent="ZoLgGPwyBZnqr0tmu89g-134">
          <mxGeometry y="60" width="190" height="30" as="geometry" />
        </mxCell>
        <mxCell id="ZoLgGPwyBZnqr0tmu89g-139" value="" style="shape=partialRectangle;connectable=0;fillColor=none;top=0;left=0;bottom=0;right=0;editable=1;overflow=hidden;whiteSpace=wrap;html=1;" vertex="1" parent="ZoLgGPwyBZnqr0tmu89g-138">
          <mxGeometry width="30" height="30" as="geometry">
            <mxRectangle width="30" height="30" as="alternateBounds" />
          </mxGeometry>
        </mxCell>
        <mxCell id="ZoLgGPwyBZnqr0tmu89g-140" value="tipo_documento Varchar(50)" style="shape=partialRectangle;connectable=0;fillColor=none;top=0;left=0;bottom=0;right=0;align=left;spacingLeft=6;overflow=hidden;whiteSpace=wrap;html=1;" vertex="1" parent="ZoLgGPwyBZnqr0tmu89g-138">
          <mxGeometry x="30" width="160" height="30" as="geometry">
            <mxRectangle width="160" height="30" as="alternateBounds" />
          </mxGeometry>
        </mxCell>
        <mxCell id="ZoLgGPwyBZnqr0tmu89g-141" value="" style="shape=tableRow;horizontal=0;startSize=0;swimlaneHead=0;swimlaneBody=0;fillColor=none;collapsible=0;dropTarget=0;points=[[0,0.5],[1,0.5]];portConstraint=eastwest;top=0;left=0;right=0;bottom=0;" vertex="1" parent="ZoLgGPwyBZnqr0tmu89g-134">
          <mxGeometry y="90" width="190" height="30" as="geometry" />
        </mxCell>
        <mxCell id="ZoLgGPwyBZnqr0tmu89g-142" value="" style="shape=partialRectangle;connectable=0;fillColor=none;top=0;left=0;bottom=0;right=0;editable=1;overflow=hidden;whiteSpace=wrap;html=1;" vertex="1" parent="ZoLgGPwyBZnqr0tmu89g-141">
          <mxGeometry width="30" height="30" as="geometry">
            <mxRectangle width="30" height="30" as="alternateBounds" />
          </mxGeometry>
        </mxCell>
        <mxCell id="ZoLgGPwyBZnqr0tmu89g-143" value="documento Varchar(50)" style="shape=partialRectangle;connectable=0;fillColor=none;top=0;left=0;bottom=0;right=0;align=left;spacingLeft=6;overflow=hidden;whiteSpace=wrap;html=1;" vertex="1" parent="ZoLgGPwyBZnqr0tmu89g-141">
          <mxGeometry x="30" width="160" height="30" as="geometry">
            <mxRectangle width="160" height="30" as="alternateBounds" />
          </mxGeometry>
        </mxCell>
        <mxCell id="ZoLgGPwyBZnqr0tmu89g-144" value="" style="shape=tableRow;horizontal=0;startSize=0;swimlaneHead=0;swimlaneBody=0;fillColor=none;collapsible=0;dropTarget=0;points=[[0,0.5],[1,0.5]];portConstraint=eastwest;top=0;left=0;right=0;bottom=0;" vertex="1" parent="ZoLgGPwyBZnqr0tmu89g-134">
          <mxGeometry y="120" width="190" height="30" as="geometry" />
        </mxCell>
        <mxCell id="ZoLgGPwyBZnqr0tmu89g-145" value="" style="shape=partialRectangle;connectable=0;fillColor=none;top=0;left=0;bottom=0;right=0;editable=1;overflow=hidden;whiteSpace=wrap;html=1;" vertex="1" parent="ZoLgGPwyBZnqr0tmu89g-144">
          <mxGeometry width="30" height="30" as="geometry">
            <mxRectangle width="30" height="30" as="alternateBounds" />
          </mxGeometry>
        </mxCell>
        <mxCell id="ZoLgGPwyBZnqr0tmu89g-146" value="nombre Varchar(50)" style="shape=partialRectangle;connectable=0;fillColor=none;top=0;left=0;bottom=0;right=0;align=left;spacingLeft=6;overflow=hidden;whiteSpace=wrap;html=1;" vertex="1" parent="ZoLgGPwyBZnqr0tmu89g-144">
          <mxGeometry x="30" width="160" height="30" as="geometry">
            <mxRectangle width="160" height="30" as="alternateBounds" />
          </mxGeometry>
        </mxCell>
        <mxCell id="ZoLgGPwyBZnqr0tmu89g-147" value="" style="shape=tableRow;horizontal=0;startSize=0;swimlaneHead=0;swimlaneBody=0;fillColor=none;collapsible=0;dropTarget=0;points=[[0,0.5],[1,0.5]];portConstraint=eastwest;top=0;left=0;right=0;bottom=0;" vertex="1" parent="ZoLgGPwyBZnqr0tmu89g-134">
          <mxGeometry y="150" width="190" height="30" as="geometry" />
        </mxCell>
        <mxCell id="ZoLgGPwyBZnqr0tmu89g-148" value="" style="shape=partialRectangle;connectable=0;fillColor=none;top=0;left=0;bottom=0;right=0;editable=1;overflow=hidden;whiteSpace=wrap;html=1;" vertex="1" parent="ZoLgGPwyBZnqr0tmu89g-147">
          <mxGeometry width="30" height="30" as="geometry">
            <mxRectangle width="30" height="30" as="alternateBounds" />
          </mxGeometry>
        </mxCell>
        <mxCell id="ZoLgGPwyBZnqr0tmu89g-149" value="correo Varchar(50)" style="shape=partialRectangle;connectable=0;fillColor=none;top=0;left=0;bottom=0;right=0;align=left;spacingLeft=6;overflow=hidden;whiteSpace=wrap;html=1;" vertex="1" parent="ZoLgGPwyBZnqr0tmu89g-147">
          <mxGeometry x="30" width="160" height="30" as="geometry">
            <mxRectangle width="160" height="30" as="alternateBounds" />
          </mxGeometry>
        </mxCell>
        <mxCell id="ZoLgGPwyBZnqr0tmu89g-150" value="&lt;font style=&quot;font-size: 18px;&quot;&gt;&lt;b&gt;Modelo Relacional (BD)&lt;/b&gt;&lt;/font&gt;" style="text;strokeColor=none;fillColor=none;spacingLeft=4;spacingRight=4;overflow=hidden;rotatable=0;points=[[0,0.5],[1,0.5]];portConstraint=eastwest;fontSize=12;whiteSpace=wrap;html=1;strokeWidth=3;" vertex="1" parent="1">
          <mxGeometry x="350" y="1220" width="250" height="30" as="geometry" />
        </mxCell>
        <mxCell id="ZoLgGPwyBZnqr0tmu89g-151" value="" style="rounded=1;whiteSpace=wrap;html=1;fillColor=#dae8fc;strokeColor=#6c8ebf;" vertex="1" parent="1">
          <mxGeometry x="10" y="-550" width="800" height="160" as="geometry" />
        </mxCell>
        <mxCell id="ZoLgGPwyBZnqr0tmu89g-152" value="&lt;font style=&quot;font-size: 18px;&quot;&gt;&lt;b&gt;Diagrama Casos de USO (UML )&lt;/b&gt;&lt;/font&gt;" style="text;strokeColor=none;fillColor=none;spacingLeft=4;spacingRight=4;overflow=hidden;rotatable=0;points=[[0,0.5],[1,0.5]];portConstraint=eastwest;fontSize=12;whiteSpace=wrap;html=1;strokeWidth=3;" vertex="1" parent="1">
          <mxGeometry x="307" y="-510" width="303" height="30" as="geometry" />
        </mxCell>
        <mxCell id="ZoLgGPwyBZnqr0tmu89g-153" value="" style="rounded=1;whiteSpace=wrap;html=1;fillColor=#dae8fc;strokeColor=#6c8ebf;" vertex="1" parent="1">
          <mxGeometry x="10" y="-370" width="800" height="160" as="geometry" />
        </mxCell>
        <mxCell id="ZoLgGPwyBZnqr0tmu89g-154" value="&lt;font style=&quot;font-size: 18px;&quot;&gt;&lt;b&gt;Diagrama de Secuencia (UML )&lt;/b&gt;&lt;/font&gt;" style="text;strokeColor=none;fillColor=none;spacingLeft=4;spacingRight=4;overflow=hidden;rotatable=0;points=[[0,0.5],[1,0.5]];portConstraint=eastwest;fontSize=12;whiteSpace=wrap;html=1;strokeWidth=3;" vertex="1" parent="1">
          <mxGeometry x="304" y="-340" width="303" height="30" as="geometry" />
        </mxCell>
        <mxCell id="ZoLgGPwyBZnqr0tmu89g-155" value="&lt;span style=&quot;font-size: 18px;&quot;&gt;&lt;b&gt;Evidencia: GA6-220501096-AA1-EV01&lt;/b&gt;&lt;/span&gt;" style="text;strokeColor=none;fillColor=none;spacingLeft=4;spacingRight=4;overflow=hidden;rotatable=0;points=[[0,0.5],[1,0.5]];portConstraint=eastwest;fontSize=12;whiteSpace=wrap;html=1;strokeWidth=3;" vertex="1" parent="1">
          <mxGeometry x="450" y="270" width="340" height="30" as="geometry" />
        </mxCell>
        <mxCell id="ZoLgGPwyBZnqr0tmu89g-157" value="&lt;span style=&quot;font-size: 18px;&quot;&gt;&lt;b&gt;Evidencia: GA6-220501096-AA1-EV02&lt;/b&gt;&lt;/span&gt;" style="text;strokeColor=none;fillColor=none;spacingLeft=4;spacingRight=4;overflow=hidden;rotatable=0;points=[[0,0.5],[1,0.5]];portConstraint=eastwest;fontSize=12;whiteSpace=wrap;html=1;strokeWidth=3;" vertex="1" parent="1">
          <mxGeometry x="427" y="1250" width="340" height="30" as="geometry" />
        </mxCell>
        <mxCell id="ZoLgGPwyBZnqr0tmu89g-158" value="producto" style="shape=table;startSize=30;container=1;collapsible=1;childLayout=tableLayout;fixedRows=1;rowLines=0;fontStyle=1;align=center;resizeLast=1;html=1;" vertex="1" parent="1">
          <mxGeometry x="264.44" y="1680" width="190" height="180" as="geometry" />
        </mxCell>
        <mxCell id="ZoLgGPwyBZnqr0tmu89g-159" value="" style="shape=tableRow;horizontal=0;startSize=0;swimlaneHead=0;swimlaneBody=0;fillColor=none;collapsible=0;dropTarget=0;points=[[0,0.5],[1,0.5]];portConstraint=eastwest;top=0;left=0;right=0;bottom=1;" vertex="1" parent="ZoLgGPwyBZnqr0tmu89g-158">
          <mxGeometry y="30" width="190" height="30" as="geometry" />
        </mxCell>
        <mxCell id="ZoLgGPwyBZnqr0tmu89g-160" value="PK" style="shape=partialRectangle;connectable=0;fillColor=none;top=0;left=0;bottom=0;right=0;fontStyle=1;overflow=hidden;whiteSpace=wrap;html=1;" vertex="1" parent="ZoLgGPwyBZnqr0tmu89g-159">
          <mxGeometry width="30" height="30" as="geometry">
            <mxRectangle width="30" height="30" as="alternateBounds" />
          </mxGeometry>
        </mxCell>
        <mxCell id="ZoLgGPwyBZnqr0tmu89g-161" value="id INT" style="shape=partialRectangle;connectable=0;fillColor=none;top=0;left=0;bottom=0;right=0;align=left;spacingLeft=6;fontStyle=5;overflow=hidden;whiteSpace=wrap;html=1;" vertex="1" parent="ZoLgGPwyBZnqr0tmu89g-159">
          <mxGeometry x="30" width="160" height="30" as="geometry">
            <mxRectangle width="160" height="30" as="alternateBounds" />
          </mxGeometry>
        </mxCell>
        <mxCell id="ZoLgGPwyBZnqr0tmu89g-162" value="" style="shape=tableRow;horizontal=0;startSize=0;swimlaneHead=0;swimlaneBody=0;fillColor=none;collapsible=0;dropTarget=0;points=[[0,0.5],[1,0.5]];portConstraint=eastwest;top=0;left=0;right=0;bottom=0;" vertex="1" parent="ZoLgGPwyBZnqr0tmu89g-158">
          <mxGeometry y="60" width="190" height="30" as="geometry" />
        </mxCell>
        <mxCell id="ZoLgGPwyBZnqr0tmu89g-163" value="" style="shape=partialRectangle;connectable=0;fillColor=none;top=0;left=0;bottom=0;right=0;editable=1;overflow=hidden;whiteSpace=wrap;html=1;" vertex="1" parent="ZoLgGPwyBZnqr0tmu89g-162">
          <mxGeometry width="30" height="30" as="geometry">
            <mxRectangle width="30" height="30" as="alternateBounds" />
          </mxGeometry>
        </mxCell>
        <mxCell id="ZoLgGPwyBZnqr0tmu89g-164" value="codigo Varchar(10)" style="shape=partialRectangle;connectable=0;fillColor=none;top=0;left=0;bottom=0;right=0;align=left;spacingLeft=6;overflow=hidden;whiteSpace=wrap;html=1;" vertex="1" parent="ZoLgGPwyBZnqr0tmu89g-162">
          <mxGeometry x="30" width="160" height="30" as="geometry">
            <mxRectangle width="160" height="30" as="alternateBounds" />
          </mxGeometry>
        </mxCell>
        <mxCell id="ZoLgGPwyBZnqr0tmu89g-165" value="" style="shape=tableRow;horizontal=0;startSize=0;swimlaneHead=0;swimlaneBody=0;fillColor=none;collapsible=0;dropTarget=0;points=[[0,0.5],[1,0.5]];portConstraint=eastwest;top=0;left=0;right=0;bottom=0;" vertex="1" parent="ZoLgGPwyBZnqr0tmu89g-158">
          <mxGeometry y="90" width="190" height="30" as="geometry" />
        </mxCell>
        <mxCell id="ZoLgGPwyBZnqr0tmu89g-166" value="" style="shape=partialRectangle;connectable=0;fillColor=none;top=0;left=0;bottom=0;right=0;editable=1;overflow=hidden;whiteSpace=wrap;html=1;" vertex="1" parent="ZoLgGPwyBZnqr0tmu89g-165">
          <mxGeometry width="30" height="30" as="geometry">
            <mxRectangle width="30" height="30" as="alternateBounds" />
          </mxGeometry>
        </mxCell>
        <mxCell id="ZoLgGPwyBZnqr0tmu89g-167" value="nombre Varchar(50)" style="shape=partialRectangle;connectable=0;fillColor=none;top=0;left=0;bottom=0;right=0;align=left;spacingLeft=6;overflow=hidden;whiteSpace=wrap;html=1;" vertex="1" parent="ZoLgGPwyBZnqr0tmu89g-165">
          <mxGeometry x="30" width="160" height="30" as="geometry">
            <mxRectangle width="160" height="30" as="alternateBounds" />
          </mxGeometry>
        </mxCell>
        <mxCell id="ZoLgGPwyBZnqr0tmu89g-168" value="" style="shape=tableRow;horizontal=0;startSize=0;swimlaneHead=0;swimlaneBody=0;fillColor=none;collapsible=0;dropTarget=0;points=[[0,0.5],[1,0.5]];portConstraint=eastwest;top=0;left=0;right=0;bottom=0;" vertex="1" parent="ZoLgGPwyBZnqr0tmu89g-158">
          <mxGeometry y="120" width="190" height="30" as="geometry" />
        </mxCell>
        <mxCell id="ZoLgGPwyBZnqr0tmu89g-169" value="" style="shape=partialRectangle;connectable=0;fillColor=none;top=0;left=0;bottom=0;right=0;editable=1;overflow=hidden;whiteSpace=wrap;html=1;" vertex="1" parent="ZoLgGPwyBZnqr0tmu89g-168">
          <mxGeometry width="30" height="30" as="geometry">
            <mxRectangle width="30" height="30" as="alternateBounds" />
          </mxGeometry>
        </mxCell>
        <mxCell id="ZoLgGPwyBZnqr0tmu89g-170" value="descripcion Varchar(200)" style="shape=partialRectangle;connectable=0;fillColor=none;top=0;left=0;bottom=0;right=0;align=left;spacingLeft=6;overflow=hidden;whiteSpace=wrap;html=1;" vertex="1" parent="ZoLgGPwyBZnqr0tmu89g-168">
          <mxGeometry x="30" width="160" height="30" as="geometry">
            <mxRectangle width="160" height="30" as="alternateBounds" />
          </mxGeometry>
        </mxCell>
        <mxCell id="ZoLgGPwyBZnqr0tmu89g-171" value="" style="shape=tableRow;horizontal=0;startSize=0;swimlaneHead=0;swimlaneBody=0;fillColor=none;collapsible=0;dropTarget=0;points=[[0,0.5],[1,0.5]];portConstraint=eastwest;top=0;left=0;right=0;bottom=0;" vertex="1" parent="ZoLgGPwyBZnqr0tmu89g-158">
          <mxGeometry y="150" width="190" height="30" as="geometry" />
        </mxCell>
        <mxCell id="ZoLgGPwyBZnqr0tmu89g-172" value="" style="shape=partialRectangle;connectable=0;fillColor=none;top=0;left=0;bottom=0;right=0;editable=1;overflow=hidden;whiteSpace=wrap;html=1;" vertex="1" parent="ZoLgGPwyBZnqr0tmu89g-171">
          <mxGeometry width="30" height="30" as="geometry">
            <mxRectangle width="30" height="30" as="alternateBounds" />
          </mxGeometry>
        </mxCell>
        <mxCell id="ZoLgGPwyBZnqr0tmu89g-173" value="categoria Varchar(50)" style="shape=partialRectangle;connectable=0;fillColor=none;top=0;left=0;bottom=0;right=0;align=left;spacingLeft=6;overflow=hidden;whiteSpace=wrap;html=1;" vertex="1" parent="ZoLgGPwyBZnqr0tmu89g-171">
          <mxGeometry x="30" width="160" height="30" as="geometry">
            <mxRectangle width="160" height="30" as="alternateBounds" />
          </mxGeometry>
        </mxCell>
        <mxCell id="ZoLgGPwyBZnqr0tmu89g-174" value="factura_cliente" style="shape=table;startSize=20;container=1;collapsible=1;childLayout=tableLayout;fixedRows=1;rowLines=0;fontStyle=1;align=center;resizeLast=1;html=1;" vertex="1" parent="1">
          <mxGeometry x="260" y="1440" width="210" height="210" as="geometry" />
        </mxCell>
        <mxCell id="ZoLgGPwyBZnqr0tmu89g-175" value="" style="shape=tableRow;horizontal=0;startSize=0;swimlaneHead=0;swimlaneBody=0;fillColor=none;collapsible=0;dropTarget=0;points=[[0,0.5],[1,0.5]];portConstraint=eastwest;top=0;left=0;right=0;bottom=1;" vertex="1" parent="ZoLgGPwyBZnqr0tmu89g-174">
          <mxGeometry y="20" width="210" height="30" as="geometry" />
        </mxCell>
        <mxCell id="ZoLgGPwyBZnqr0tmu89g-176" value="PK" style="shape=partialRectangle;connectable=0;fillColor=none;top=0;left=0;bottom=0;right=0;fontStyle=1;overflow=hidden;whiteSpace=wrap;html=1;" vertex="1" parent="ZoLgGPwyBZnqr0tmu89g-175">
          <mxGeometry width="30" height="30" as="geometry">
            <mxRectangle width="30" height="30" as="alternateBounds" />
          </mxGeometry>
        </mxCell>
        <mxCell id="ZoLgGPwyBZnqr0tmu89g-177" value="id INT" style="shape=partialRectangle;connectable=0;fillColor=none;top=0;left=0;bottom=0;right=0;align=left;spacingLeft=6;fontStyle=5;overflow=hidden;whiteSpace=wrap;html=1;" vertex="1" parent="ZoLgGPwyBZnqr0tmu89g-175">
          <mxGeometry x="30" width="180" height="30" as="geometry">
            <mxRectangle width="180" height="30" as="alternateBounds" />
          </mxGeometry>
        </mxCell>
        <mxCell id="ZoLgGPwyBZnqr0tmu89g-178" value="" style="shape=tableRow;horizontal=0;startSize=0;swimlaneHead=0;swimlaneBody=0;fillColor=none;collapsible=0;dropTarget=0;points=[[0,0.5],[1,0.5]];portConstraint=eastwest;top=0;left=0;right=0;bottom=0;" vertex="1" parent="ZoLgGPwyBZnqr0tmu89g-174">
          <mxGeometry y="50" width="210" height="30" as="geometry" />
        </mxCell>
        <mxCell id="ZoLgGPwyBZnqr0tmu89g-179" value="" style="shape=partialRectangle;connectable=0;fillColor=none;top=0;left=0;bottom=0;right=0;editable=1;overflow=hidden;whiteSpace=wrap;html=1;" vertex="1" parent="ZoLgGPwyBZnqr0tmu89g-178">
          <mxGeometry width="30" height="30" as="geometry">
            <mxRectangle width="30" height="30" as="alternateBounds" />
          </mxGeometry>
        </mxCell>
        <mxCell id="ZoLgGPwyBZnqr0tmu89g-180" value="numero_factura Varchar(10)" style="shape=partialRectangle;connectable=0;fillColor=none;top=0;left=0;bottom=0;right=0;align=left;spacingLeft=6;overflow=hidden;whiteSpace=wrap;html=1;" vertex="1" parent="ZoLgGPwyBZnqr0tmu89g-178">
          <mxGeometry x="30" width="180" height="30" as="geometry">
            <mxRectangle width="180" height="30" as="alternateBounds" />
          </mxGeometry>
        </mxCell>
        <mxCell id="ZoLgGPwyBZnqr0tmu89g-181" value="" style="shape=tableRow;horizontal=0;startSize=0;swimlaneHead=0;swimlaneBody=0;fillColor=none;collapsible=0;dropTarget=0;points=[[0,0.5],[1,0.5]];portConstraint=eastwest;top=0;left=0;right=0;bottom=0;" vertex="1" parent="ZoLgGPwyBZnqr0tmu89g-174">
          <mxGeometry y="80" width="210" height="30" as="geometry" />
        </mxCell>
        <mxCell id="ZoLgGPwyBZnqr0tmu89g-182" value="" style="shape=partialRectangle;connectable=0;fillColor=none;top=0;left=0;bottom=0;right=0;editable=1;overflow=hidden;whiteSpace=wrap;html=1;" vertex="1" parent="ZoLgGPwyBZnqr0tmu89g-181">
          <mxGeometry width="30" height="30" as="geometry">
            <mxRectangle width="30" height="30" as="alternateBounds" />
          </mxGeometry>
        </mxCell>
        <mxCell id="ZoLgGPwyBZnqr0tmu89g-183" value="fecha DataTime" style="shape=partialRectangle;connectable=0;fillColor=none;top=0;left=0;bottom=0;right=0;align=left;spacingLeft=6;overflow=hidden;whiteSpace=wrap;html=1;" vertex="1" parent="ZoLgGPwyBZnqr0tmu89g-181">
          <mxGeometry x="30" width="180" height="30" as="geometry">
            <mxRectangle width="180" height="30" as="alternateBounds" />
          </mxGeometry>
        </mxCell>
        <mxCell id="ZoLgGPwyBZnqr0tmu89g-184" value="" style="shape=tableRow;horizontal=0;startSize=0;swimlaneHead=0;swimlaneBody=0;fillColor=none;collapsible=0;dropTarget=0;points=[[0,0.5],[1,0.5]];portConstraint=eastwest;top=0;left=0;right=0;bottom=0;" vertex="1" parent="ZoLgGPwyBZnqr0tmu89g-174">
          <mxGeometry y="110" width="210" height="30" as="geometry" />
        </mxCell>
        <mxCell id="ZoLgGPwyBZnqr0tmu89g-185" value="" style="shape=partialRectangle;connectable=0;fillColor=none;top=0;left=0;bottom=0;right=0;editable=1;overflow=hidden;whiteSpace=wrap;html=1;" vertex="1" parent="ZoLgGPwyBZnqr0tmu89g-184">
          <mxGeometry width="30" height="30" as="geometry">
            <mxRectangle width="30" height="30" as="alternateBounds" />
          </mxGeometry>
        </mxCell>
        <mxCell id="ZoLgGPwyBZnqr0tmu89g-186" value="estado_factura bit default (1)" style="shape=partialRectangle;connectable=0;fillColor=none;top=0;left=0;bottom=0;right=0;align=left;spacingLeft=6;overflow=hidden;whiteSpace=wrap;html=1;" vertex="1" parent="ZoLgGPwyBZnqr0tmu89g-184">
          <mxGeometry x="30" width="180" height="30" as="geometry">
            <mxRectangle width="180" height="30" as="alternateBounds" />
          </mxGeometry>
        </mxCell>
        <mxCell id="ZoLgGPwyBZnqr0tmu89g-187" value="" style="shape=tableRow;horizontal=0;startSize=0;swimlaneHead=0;swimlaneBody=0;fillColor=none;collapsible=0;dropTarget=0;points=[[0,0.5],[1,0.5]];portConstraint=eastwest;top=0;left=0;right=0;bottom=0;" vertex="1" parent="ZoLgGPwyBZnqr0tmu89g-174">
          <mxGeometry y="140" width="210" height="30" as="geometry" />
        </mxCell>
        <mxCell id="ZoLgGPwyBZnqr0tmu89g-188" value="" style="shape=partialRectangle;connectable=0;fillColor=none;top=0;left=0;bottom=0;right=0;editable=1;overflow=hidden;whiteSpace=wrap;html=1;" vertex="1" parent="ZoLgGPwyBZnqr0tmu89g-187">
          <mxGeometry width="30" height="30" as="geometry">
            <mxRectangle width="30" height="30" as="alternateBounds" />
          </mxGeometry>
        </mxCell>
        <mxCell id="ZoLgGPwyBZnqr0tmu89g-189" value="categoria Varchar(50)" style="shape=partialRectangle;connectable=0;fillColor=none;top=0;left=0;bottom=0;right=0;align=left;spacingLeft=6;overflow=hidden;whiteSpace=wrap;html=1;" vertex="1" parent="ZoLgGPwyBZnqr0tmu89g-187">
          <mxGeometry x="30" width="180" height="30" as="geometry">
            <mxRectangle width="180" height="30" as="alternateBounds" />
          </mxGeometry>
        </mxCell>
        <mxCell id="ZoLgGPwyBZnqr0tmu89g-190" value="" style="shape=tableRow;horizontal=0;startSize=0;swimlaneHead=0;swimlaneBody=0;fillColor=none;collapsible=0;dropTarget=0;points=[[0,0.5],[1,0.5]];portConstraint=eastwest;top=0;left=0;right=0;bottom=0;" vertex="1" parent="ZoLgGPwyBZnqr0tmu89g-174">
          <mxGeometry y="170" width="210" height="30" as="geometry" />
        </mxCell>
        <mxCell id="ZoLgGPwyBZnqr0tmu89g-191" value="FK" style="shape=partialRectangle;connectable=0;fillColor=none;top=0;left=0;bottom=0;right=0;editable=1;overflow=hidden;whiteSpace=wrap;html=1;" vertex="1" parent="ZoLgGPwyBZnqr0tmu89g-190">
          <mxGeometry width="30" height="30" as="geometry">
            <mxRectangle width="30" height="30" as="alternateBounds" />
          </mxGeometry>
        </mxCell>
        <mxCell id="ZoLgGPwyBZnqr0tmu89g-192" value="cliente_id INT" style="shape=partialRectangle;connectable=0;fillColor=none;top=0;left=0;bottom=0;right=0;align=left;spacingLeft=6;overflow=hidden;whiteSpace=wrap;html=1;" vertex="1" parent="ZoLgGPwyBZnqr0tmu89g-190">
          <mxGeometry x="30" width="180" height="30" as="geometry">
            <mxRectangle width="180" height="30" as="alternateBounds" />
          </mxGeometry>
        </mxCell>
        <mxCell id="ZoLgGPwyBZnqr0tmu89g-204" value="" style="edgeStyle=entityRelationEdgeStyle;fontSize=12;html=1;endArrow=ERoneToMany;startArrow=ERzeroToOne;rounded=0;exitX=1;exitY=0.5;exitDx=0;exitDy=0;entryX=0;entryY=0.333;entryDx=0;entryDy=0;entryPerimeter=0;" edge="1" parent="1" source="ZoLgGPwyBZnqr0tmu89g-135" target="ZoLgGPwyBZnqr0tmu89g-190">
          <mxGeometry width="100" height="100" relative="1" as="geometry">
            <mxPoint x="520" y="1690" as="sourcePoint" />
            <mxPoint x="380" y="1410" as="targetPoint" />
          </mxGeometry>
        </mxCell>
        <mxCell id="ZoLgGPwyBZnqr0tmu89g-205" value="detalle_factura" style="shape=table;startSize=30;container=1;collapsible=1;childLayout=tableLayout;fixedRows=1;rowLines=0;fontStyle=1;align=center;resizeLast=1;html=1;" vertex="1" parent="1">
          <mxGeometry x="560" y="1450" width="210" height="270" as="geometry" />
        </mxCell>
        <mxCell id="ZoLgGPwyBZnqr0tmu89g-206" value="" style="shape=tableRow;horizontal=0;startSize=0;swimlaneHead=0;swimlaneBody=0;fillColor=none;collapsible=0;dropTarget=0;points=[[0,0.5],[1,0.5]];portConstraint=eastwest;top=0;left=0;right=0;bottom=1;" vertex="1" parent="ZoLgGPwyBZnqr0tmu89g-205">
          <mxGeometry y="30" width="210" height="30" as="geometry" />
        </mxCell>
        <mxCell id="ZoLgGPwyBZnqr0tmu89g-207" value="PK" style="shape=partialRectangle;connectable=0;fillColor=none;top=0;left=0;bottom=0;right=0;fontStyle=1;overflow=hidden;whiteSpace=wrap;html=1;" vertex="1" parent="ZoLgGPwyBZnqr0tmu89g-206">
          <mxGeometry width="30" height="30" as="geometry">
            <mxRectangle width="30" height="30" as="alternateBounds" />
          </mxGeometry>
        </mxCell>
        <mxCell id="ZoLgGPwyBZnqr0tmu89g-208" value="id INT" style="shape=partialRectangle;connectable=0;fillColor=none;top=0;left=0;bottom=0;right=0;align=left;spacingLeft=6;fontStyle=5;overflow=hidden;whiteSpace=wrap;html=1;" vertex="1" parent="ZoLgGPwyBZnqr0tmu89g-206">
          <mxGeometry x="30" width="180" height="30" as="geometry">
            <mxRectangle width="180" height="30" as="alternateBounds" />
          </mxGeometry>
        </mxCell>
        <mxCell id="ZoLgGPwyBZnqr0tmu89g-209" value="" style="shape=tableRow;horizontal=0;startSize=0;swimlaneHead=0;swimlaneBody=0;fillColor=none;collapsible=0;dropTarget=0;points=[[0,0.5],[1,0.5]];portConstraint=eastwest;top=0;left=0;right=0;bottom=0;" vertex="1" parent="ZoLgGPwyBZnqr0tmu89g-205">
          <mxGeometry y="60" width="210" height="30" as="geometry" />
        </mxCell>
        <mxCell id="ZoLgGPwyBZnqr0tmu89g-210" value="" style="shape=partialRectangle;connectable=0;fillColor=none;top=0;left=0;bottom=0;right=0;editable=1;overflow=hidden;whiteSpace=wrap;html=1;" vertex="1" parent="ZoLgGPwyBZnqr0tmu89g-209">
          <mxGeometry width="30" height="30" as="geometry">
            <mxRectangle width="30" height="30" as="alternateBounds" />
          </mxGeometry>
        </mxCell>
        <mxCell id="ZoLgGPwyBZnqr0tmu89g-211" value="cantidad INT" style="shape=partialRectangle;connectable=0;fillColor=none;top=0;left=0;bottom=0;right=0;align=left;spacingLeft=6;overflow=hidden;whiteSpace=wrap;html=1;" vertex="1" parent="ZoLgGPwyBZnqr0tmu89g-209">
          <mxGeometry x="30" width="180" height="30" as="geometry">
            <mxRectangle width="180" height="30" as="alternateBounds" />
          </mxGeometry>
        </mxCell>
        <mxCell id="ZoLgGPwyBZnqr0tmu89g-212" value="" style="shape=tableRow;horizontal=0;startSize=0;swimlaneHead=0;swimlaneBody=0;fillColor=none;collapsible=0;dropTarget=0;points=[[0,0.5],[1,0.5]];portConstraint=eastwest;top=0;left=0;right=0;bottom=0;" vertex="1" parent="ZoLgGPwyBZnqr0tmu89g-205">
          <mxGeometry y="90" width="210" height="30" as="geometry" />
        </mxCell>
        <mxCell id="ZoLgGPwyBZnqr0tmu89g-213" value="" style="shape=partialRectangle;connectable=0;fillColor=none;top=0;left=0;bottom=0;right=0;editable=1;overflow=hidden;whiteSpace=wrap;html=1;" vertex="1" parent="ZoLgGPwyBZnqr0tmu89g-212">
          <mxGeometry width="30" height="30" as="geometry">
            <mxRectangle width="30" height="30" as="alternateBounds" />
          </mxGeometry>
        </mxCell>
        <mxCell id="ZoLgGPwyBZnqr0tmu89g-214" value="valor_bruto Decimal (10,2)" style="shape=partialRectangle;connectable=0;fillColor=none;top=0;left=0;bottom=0;right=0;align=left;spacingLeft=6;overflow=hidden;whiteSpace=wrap;html=1;" vertex="1" parent="ZoLgGPwyBZnqr0tmu89g-212">
          <mxGeometry x="30" width="180" height="30" as="geometry">
            <mxRectangle width="180" height="30" as="alternateBounds" />
          </mxGeometry>
        </mxCell>
        <mxCell id="ZoLgGPwyBZnqr0tmu89g-215" value="" style="shape=tableRow;horizontal=0;startSize=0;swimlaneHead=0;swimlaneBody=0;fillColor=none;collapsible=0;dropTarget=0;points=[[0,0.5],[1,0.5]];portConstraint=eastwest;top=0;left=0;right=0;bottom=0;" vertex="1" parent="ZoLgGPwyBZnqr0tmu89g-205">
          <mxGeometry y="120" width="210" height="30" as="geometry" />
        </mxCell>
        <mxCell id="ZoLgGPwyBZnqr0tmu89g-216" value="" style="shape=partialRectangle;connectable=0;fillColor=none;top=0;left=0;bottom=0;right=0;editable=1;overflow=hidden;whiteSpace=wrap;html=1;" vertex="1" parent="ZoLgGPwyBZnqr0tmu89g-215">
          <mxGeometry width="30" height="30" as="geometry">
            <mxRectangle width="30" height="30" as="alternateBounds" />
          </mxGeometry>
        </mxCell>
        <mxCell id="ZoLgGPwyBZnqr0tmu89g-217" value="valor_neto Decimal (10,2)" style="shape=partialRectangle;connectable=0;fillColor=none;top=0;left=0;bottom=0;right=0;align=left;spacingLeft=6;overflow=hidden;whiteSpace=wrap;html=1;" vertex="1" parent="ZoLgGPwyBZnqr0tmu89g-215">
          <mxGeometry x="30" width="180" height="30" as="geometry">
            <mxRectangle width="180" height="30" as="alternateBounds" />
          </mxGeometry>
        </mxCell>
        <mxCell id="ZoLgGPwyBZnqr0tmu89g-218" value="" style="shape=tableRow;horizontal=0;startSize=0;swimlaneHead=0;swimlaneBody=0;fillColor=none;collapsible=0;dropTarget=0;points=[[0,0.5],[1,0.5]];portConstraint=eastwest;top=0;left=0;right=0;bottom=0;" vertex="1" parent="ZoLgGPwyBZnqr0tmu89g-205">
          <mxGeometry y="150" width="210" height="30" as="geometry" />
        </mxCell>
        <mxCell id="ZoLgGPwyBZnqr0tmu89g-219" value="" style="shape=partialRectangle;connectable=0;fillColor=none;top=0;left=0;bottom=0;right=0;editable=1;overflow=hidden;whiteSpace=wrap;html=1;" vertex="1" parent="ZoLgGPwyBZnqr0tmu89g-218">
          <mxGeometry width="30" height="30" as="geometry">
            <mxRectangle width="30" height="30" as="alternateBounds" />
          </mxGeometry>
        </mxCell>
        <mxCell id="ZoLgGPwyBZnqr0tmu89g-220" value="valor_iva Decimal (10,2)" style="shape=partialRectangle;connectable=0;fillColor=none;top=0;left=0;bottom=0;right=0;align=left;spacingLeft=6;overflow=hidden;whiteSpace=wrap;html=1;" vertex="1" parent="ZoLgGPwyBZnqr0tmu89g-218">
          <mxGeometry x="30" width="180" height="30" as="geometry">
            <mxRectangle width="180" height="30" as="alternateBounds" />
          </mxGeometry>
        </mxCell>
        <mxCell id="ZoLgGPwyBZnqr0tmu89g-224" value="" style="shape=tableRow;horizontal=0;startSize=0;swimlaneHead=0;swimlaneBody=0;fillColor=none;collapsible=0;dropTarget=0;points=[[0,0.5],[1,0.5]];portConstraint=eastwest;top=0;left=0;right=0;bottom=0;" vertex="1" parent="ZoLgGPwyBZnqr0tmu89g-205">
          <mxGeometry y="180" width="210" height="30" as="geometry" />
        </mxCell>
        <mxCell id="ZoLgGPwyBZnqr0tmu89g-225" value="" style="shape=partialRectangle;connectable=0;fillColor=none;top=0;left=0;bottom=0;right=0;editable=1;overflow=hidden;whiteSpace=wrap;html=1;" vertex="1" parent="ZoLgGPwyBZnqr0tmu89g-224">
          <mxGeometry width="30" height="30" as="geometry">
            <mxRectangle width="30" height="30" as="alternateBounds" />
          </mxGeometry>
        </mxCell>
        <mxCell id="ZoLgGPwyBZnqr0tmu89g-226" value="valor_descuento Decimal (10,2)" style="shape=partialRectangle;connectable=0;fillColor=none;top=0;left=0;bottom=0;right=0;align=left;spacingLeft=6;overflow=hidden;whiteSpace=wrap;html=1;" vertex="1" parent="ZoLgGPwyBZnqr0tmu89g-224">
          <mxGeometry x="30" width="180" height="30" as="geometry">
            <mxRectangle width="180" height="30" as="alternateBounds" />
          </mxGeometry>
        </mxCell>
        <mxCell id="ZoLgGPwyBZnqr0tmu89g-221" value="" style="shape=tableRow;horizontal=0;startSize=0;swimlaneHead=0;swimlaneBody=0;fillColor=none;collapsible=0;dropTarget=0;points=[[0,0.5],[1,0.5]];portConstraint=eastwest;top=0;left=0;right=0;bottom=0;" vertex="1" parent="ZoLgGPwyBZnqr0tmu89g-205">
          <mxGeometry y="210" width="210" height="30" as="geometry" />
        </mxCell>
        <mxCell id="ZoLgGPwyBZnqr0tmu89g-222" value="FK" style="shape=partialRectangle;connectable=0;fillColor=none;top=0;left=0;bottom=0;right=0;editable=1;overflow=hidden;whiteSpace=wrap;html=1;" vertex="1" parent="ZoLgGPwyBZnqr0tmu89g-221">
          <mxGeometry width="30" height="30" as="geometry">
            <mxRectangle width="30" height="30" as="alternateBounds" />
          </mxGeometry>
        </mxCell>
        <mxCell id="ZoLgGPwyBZnqr0tmu89g-223" value="factura_cliente_id INT" style="shape=partialRectangle;connectable=0;fillColor=none;top=0;left=0;bottom=0;right=0;align=left;spacingLeft=6;overflow=hidden;whiteSpace=wrap;html=1;" vertex="1" parent="ZoLgGPwyBZnqr0tmu89g-221">
          <mxGeometry x="30" width="180" height="30" as="geometry">
            <mxRectangle width="180" height="30" as="alternateBounds" />
          </mxGeometry>
        </mxCell>
        <mxCell id="ZoLgGPwyBZnqr0tmu89g-227" value="" style="shape=tableRow;horizontal=0;startSize=0;swimlaneHead=0;swimlaneBody=0;fillColor=none;collapsible=0;dropTarget=0;points=[[0,0.5],[1,0.5]];portConstraint=eastwest;top=0;left=0;right=0;bottom=0;" vertex="1" parent="ZoLgGPwyBZnqr0tmu89g-205">
          <mxGeometry y="240" width="210" height="30" as="geometry" />
        </mxCell>
        <mxCell id="ZoLgGPwyBZnqr0tmu89g-228" value="FK" style="shape=partialRectangle;connectable=0;fillColor=none;top=0;left=0;bottom=0;right=0;editable=1;overflow=hidden;whiteSpace=wrap;html=1;" vertex="1" parent="ZoLgGPwyBZnqr0tmu89g-227">
          <mxGeometry width="30" height="30" as="geometry">
            <mxRectangle width="30" height="30" as="alternateBounds" />
          </mxGeometry>
        </mxCell>
        <mxCell id="ZoLgGPwyBZnqr0tmu89g-229" value="producto_id INT" style="shape=partialRectangle;connectable=0;fillColor=none;top=0;left=0;bottom=0;right=0;align=left;spacingLeft=6;overflow=hidden;whiteSpace=wrap;html=1;" vertex="1" parent="ZoLgGPwyBZnqr0tmu89g-227">
          <mxGeometry x="30" width="180" height="30" as="geometry">
            <mxRectangle width="180" height="30" as="alternateBounds" />
          </mxGeometry>
        </mxCell>
        <mxCell id="ZoLgGPwyBZnqr0tmu89g-230" value="" style="edgeStyle=entityRelationEdgeStyle;fontSize=12;html=1;endArrow=ERoneToMany;startArrow=ERzeroToOne;rounded=0;entryX=-0.013;entryY=0.829;entryDx=0;entryDy=0;entryPerimeter=0;" edge="1" parent="1" target="ZoLgGPwyBZnqr0tmu89g-221">
          <mxGeometry width="100" height="100" relative="1" as="geometry">
            <mxPoint x="470" y="1475" as="sourcePoint" />
            <mxPoint x="234" y="1650" as="targetPoint" />
          </mxGeometry>
        </mxCell>
        <mxCell id="ZoLgGPwyBZnqr0tmu89g-231" value="" style="edgeStyle=entityRelationEdgeStyle;fontSize=12;html=1;endArrow=ERoneToMany;startArrow=ERzeroToOne;rounded=0;entryX=0;entryY=0.5;entryDx=0;entryDy=0;exitX=1;exitY=0.5;exitDx=0;exitDy=0;" edge="1" parent="1" source="ZoLgGPwyBZnqr0tmu89g-159" target="ZoLgGPwyBZnqr0tmu89g-227">
          <mxGeometry width="100" height="100" relative="1" as="geometry">
            <mxPoint x="480" y="1495" as="sourcePoint" />
            <mxPoint x="573" y="1648" as="targetPoint" />
          </mxGeometry>
        </mxCell>
        <mxCell id="ZoLgGPwyBZnqr0tmu89g-232" value="invetario" style="shape=table;startSize=30;container=1;collapsible=1;childLayout=tableLayout;fixedRows=1;rowLines=0;fontStyle=1;align=center;resizeLast=1;html=1;" vertex="1" parent="1">
          <mxGeometry x="527" y="1830" width="240" height="240" as="geometry" />
        </mxCell>
        <mxCell id="ZoLgGPwyBZnqr0tmu89g-233" value="" style="shape=tableRow;horizontal=0;startSize=0;swimlaneHead=0;swimlaneBody=0;fillColor=none;collapsible=0;dropTarget=0;points=[[0,0.5],[1,0.5]];portConstraint=eastwest;top=0;left=0;right=0;bottom=1;" vertex="1" parent="ZoLgGPwyBZnqr0tmu89g-232">
          <mxGeometry y="30" width="240" height="30" as="geometry" />
        </mxCell>
        <mxCell id="ZoLgGPwyBZnqr0tmu89g-234" value="PK" style="shape=partialRectangle;connectable=0;fillColor=none;top=0;left=0;bottom=0;right=0;fontStyle=1;overflow=hidden;whiteSpace=wrap;html=1;" vertex="1" parent="ZoLgGPwyBZnqr0tmu89g-233">
          <mxGeometry width="30" height="30" as="geometry">
            <mxRectangle width="30" height="30" as="alternateBounds" />
          </mxGeometry>
        </mxCell>
        <mxCell id="ZoLgGPwyBZnqr0tmu89g-235" value="id INT" style="shape=partialRectangle;connectable=0;fillColor=none;top=0;left=0;bottom=0;right=0;align=left;spacingLeft=6;fontStyle=5;overflow=hidden;whiteSpace=wrap;html=1;" vertex="1" parent="ZoLgGPwyBZnqr0tmu89g-233">
          <mxGeometry x="30" width="210" height="30" as="geometry">
            <mxRectangle width="210" height="30" as="alternateBounds" />
          </mxGeometry>
        </mxCell>
        <mxCell id="ZoLgGPwyBZnqr0tmu89g-236" value="" style="shape=tableRow;horizontal=0;startSize=0;swimlaneHead=0;swimlaneBody=0;fillColor=none;collapsible=0;dropTarget=0;points=[[0,0.5],[1,0.5]];portConstraint=eastwest;top=0;left=0;right=0;bottom=0;" vertex="1" parent="ZoLgGPwyBZnqr0tmu89g-232">
          <mxGeometry y="60" width="240" height="30" as="geometry" />
        </mxCell>
        <mxCell id="ZoLgGPwyBZnqr0tmu89g-237" value="" style="shape=partialRectangle;connectable=0;fillColor=none;top=0;left=0;bottom=0;right=0;editable=1;overflow=hidden;whiteSpace=wrap;html=1;" vertex="1" parent="ZoLgGPwyBZnqr0tmu89g-236">
          <mxGeometry width="30" height="30" as="geometry">
            <mxRectangle width="30" height="30" as="alternateBounds" />
          </mxGeometry>
        </mxCell>
        <mxCell id="ZoLgGPwyBZnqr0tmu89g-238" value="codigo Varchar(10)" style="shape=partialRectangle;connectable=0;fillColor=none;top=0;left=0;bottom=0;right=0;align=left;spacingLeft=6;overflow=hidden;whiteSpace=wrap;html=1;" vertex="1" parent="ZoLgGPwyBZnqr0tmu89g-236">
          <mxGeometry x="30" width="210" height="30" as="geometry">
            <mxRectangle width="210" height="30" as="alternateBounds" />
          </mxGeometry>
        </mxCell>
        <mxCell id="ZoLgGPwyBZnqr0tmu89g-239" value="" style="shape=tableRow;horizontal=0;startSize=0;swimlaneHead=0;swimlaneBody=0;fillColor=none;collapsible=0;dropTarget=0;points=[[0,0.5],[1,0.5]];portConstraint=eastwest;top=0;left=0;right=0;bottom=0;" vertex="1" parent="ZoLgGPwyBZnqr0tmu89g-232">
          <mxGeometry y="90" width="240" height="30" as="geometry" />
        </mxCell>
        <mxCell id="ZoLgGPwyBZnqr0tmu89g-240" value="" style="shape=partialRectangle;connectable=0;fillColor=none;top=0;left=0;bottom=0;right=0;editable=1;overflow=hidden;whiteSpace=wrap;html=1;" vertex="1" parent="ZoLgGPwyBZnqr0tmu89g-239">
          <mxGeometry width="30" height="30" as="geometry">
            <mxRectangle width="30" height="30" as="alternateBounds" />
          </mxGeometry>
        </mxCell>
        <mxCell id="ZoLgGPwyBZnqr0tmu89g-241" value="stock INT" style="shape=partialRectangle;connectable=0;fillColor=none;top=0;left=0;bottom=0;right=0;align=left;spacingLeft=6;overflow=hidden;whiteSpace=wrap;html=1;" vertex="1" parent="ZoLgGPwyBZnqr0tmu89g-239">
          <mxGeometry x="30" width="210" height="30" as="geometry">
            <mxRectangle width="210" height="30" as="alternateBounds" />
          </mxGeometry>
        </mxCell>
        <mxCell id="ZoLgGPwyBZnqr0tmu89g-242" value="" style="shape=tableRow;horizontal=0;startSize=0;swimlaneHead=0;swimlaneBody=0;fillColor=none;collapsible=0;dropTarget=0;points=[[0,0.5],[1,0.5]];portConstraint=eastwest;top=0;left=0;right=0;bottom=0;" vertex="1" parent="ZoLgGPwyBZnqr0tmu89g-232">
          <mxGeometry y="120" width="240" height="30" as="geometry" />
        </mxCell>
        <mxCell id="ZoLgGPwyBZnqr0tmu89g-243" value="" style="shape=partialRectangle;connectable=0;fillColor=none;top=0;left=0;bottom=0;right=0;editable=1;overflow=hidden;whiteSpace=wrap;html=1;" vertex="1" parent="ZoLgGPwyBZnqr0tmu89g-242">
          <mxGeometry width="30" height="30" as="geometry">
            <mxRectangle width="30" height="30" as="alternateBounds" />
          </mxGeometry>
        </mxCell>
        <mxCell id="ZoLgGPwyBZnqr0tmu89g-244" value="fecha DataTime" style="shape=partialRectangle;connectable=0;fillColor=none;top=0;left=0;bottom=0;right=0;align=left;spacingLeft=6;overflow=hidden;whiteSpace=wrap;html=1;" vertex="1" parent="ZoLgGPwyBZnqr0tmu89g-242">
          <mxGeometry x="30" width="210" height="30" as="geometry">
            <mxRectangle width="210" height="30" as="alternateBounds" />
          </mxGeometry>
        </mxCell>
        <mxCell id="ZoLgGPwyBZnqr0tmu89g-245" value="" style="shape=tableRow;horizontal=0;startSize=0;swimlaneHead=0;swimlaneBody=0;fillColor=none;collapsible=0;dropTarget=0;points=[[0,0.5],[1,0.5]];portConstraint=eastwest;top=0;left=0;right=0;bottom=0;" vertex="1" parent="ZoLgGPwyBZnqr0tmu89g-232">
          <mxGeometry y="150" width="240" height="30" as="geometry" />
        </mxCell>
        <mxCell id="ZoLgGPwyBZnqr0tmu89g-246" value="" style="shape=partialRectangle;connectable=0;fillColor=none;top=0;left=0;bottom=0;right=0;editable=1;overflow=hidden;whiteSpace=wrap;html=1;" vertex="1" parent="ZoLgGPwyBZnqr0tmu89g-245">
          <mxGeometry width="30" height="30" as="geometry">
            <mxRectangle width="30" height="30" as="alternateBounds" />
          </mxGeometry>
        </mxCell>
        <mxCell id="ZoLgGPwyBZnqr0tmu89g-247" value="porcentaje_decuento Decimal (10,2)" style="shape=partialRectangle;connectable=0;fillColor=none;top=0;left=0;bottom=0;right=0;align=left;spacingLeft=6;overflow=hidden;whiteSpace=wrap;html=1;" vertex="1" parent="ZoLgGPwyBZnqr0tmu89g-245">
          <mxGeometry x="30" width="210" height="30" as="geometry">
            <mxRectangle width="210" height="30" as="alternateBounds" />
          </mxGeometry>
        </mxCell>
        <mxCell id="ZoLgGPwyBZnqr0tmu89g-248" value="" style="shape=tableRow;horizontal=0;startSize=0;swimlaneHead=0;swimlaneBody=0;fillColor=none;collapsible=0;dropTarget=0;points=[[0,0.5],[1,0.5]];portConstraint=eastwest;top=0;left=0;right=0;bottom=0;" vertex="1" parent="ZoLgGPwyBZnqr0tmu89g-232">
          <mxGeometry y="180" width="240" height="30" as="geometry" />
        </mxCell>
        <mxCell id="ZoLgGPwyBZnqr0tmu89g-249" value="" style="shape=partialRectangle;connectable=0;fillColor=none;top=0;left=0;bottom=0;right=0;editable=1;overflow=hidden;whiteSpace=wrap;html=1;" vertex="1" parent="ZoLgGPwyBZnqr0tmu89g-248">
          <mxGeometry width="30" height="30" as="geometry">
            <mxRectangle width="30" height="30" as="alternateBounds" />
          </mxGeometry>
        </mxCell>
        <mxCell id="ZoLgGPwyBZnqr0tmu89g-250" value="porcentaje_iva Decimal (10,2)" style="shape=partialRectangle;connectable=0;fillColor=none;top=0;left=0;bottom=0;right=0;align=left;spacingLeft=6;overflow=hidden;whiteSpace=wrap;html=1;" vertex="1" parent="ZoLgGPwyBZnqr0tmu89g-248">
          <mxGeometry x="30" width="210" height="30" as="geometry">
            <mxRectangle width="210" height="30" as="alternateBounds" />
          </mxGeometry>
        </mxCell>
        <mxCell id="ZoLgGPwyBZnqr0tmu89g-271" value="" style="shape=tableRow;horizontal=0;startSize=0;swimlaneHead=0;swimlaneBody=0;fillColor=none;collapsible=0;dropTarget=0;points=[[0,0.5],[1,0.5]];portConstraint=eastwest;top=0;left=0;right=0;bottom=0;" vertex="1" parent="ZoLgGPwyBZnqr0tmu89g-232">
          <mxGeometry y="210" width="240" height="30" as="geometry" />
        </mxCell>
        <mxCell id="ZoLgGPwyBZnqr0tmu89g-272" value="FK" style="shape=partialRectangle;connectable=0;fillColor=none;top=0;left=0;bottom=0;right=0;editable=1;overflow=hidden;whiteSpace=wrap;html=1;" vertex="1" parent="ZoLgGPwyBZnqr0tmu89g-271">
          <mxGeometry width="30" height="30" as="geometry">
            <mxRectangle width="30" height="30" as="alternateBounds" />
          </mxGeometry>
        </mxCell>
        <mxCell id="ZoLgGPwyBZnqr0tmu89g-273" value="producto_id INT" style="shape=partialRectangle;connectable=0;fillColor=none;top=0;left=0;bottom=0;right=0;align=left;spacingLeft=6;overflow=hidden;whiteSpace=wrap;html=1;" vertex="1" parent="ZoLgGPwyBZnqr0tmu89g-271">
          <mxGeometry x="30" width="210" height="30" as="geometry">
            <mxRectangle width="210" height="30" as="alternateBounds" />
          </mxGeometry>
        </mxCell>
        <mxCell id="ZoLgGPwyBZnqr0tmu89g-251" value="" style="edgeStyle=entityRelationEdgeStyle;fontSize=12;html=1;endArrow=ERoneToMany;startArrow=ERzeroToOne;rounded=0;entryX=0.001;entryY=0.295;entryDx=0;entryDy=0;entryPerimeter=0;" edge="1" parent="1" source="ZoLgGPwyBZnqr0tmu89g-159" target="ZoLgGPwyBZnqr0tmu89g-248">
          <mxGeometry width="100" height="100" relative="1" as="geometry">
            <mxPoint x="464" y="1735" as="sourcePoint" />
            <mxPoint x="570" y="1685" as="targetPoint" />
          </mxGeometry>
        </mxCell>
      </root>
    </mxGraphModel>
  </diagram>
</mxfile>
